<svg width="64" height="64" viewBox="0 0 64 64" fill="none" xmlns="http://www.w3.org/2000/svg">
<path d="M32.3942 8C27.6742 8 23.8262 11.6 23.8262 16.016C23.8262 17.032 24.2262 18.288 25.0422 19.832C25.1462 20.032 25.3382 20.176 25.5542 20.232C25.7782 20.288 26.0102 20.248 26.1942 20.12C27.8822 18.984 30.0822 18.36 32.3862 18.36C34.6902 18.36 36.8982 18.984 38.5782 20.12C38.7142 20.208 38.8662 20.256 39.0262 20.256C39.0902 20.256 39.1542 20.256 39.2182 20.232C39.4342 20.176 39.6262 20.032 39.7302 19.832C40.5462 18.28 40.9462 17.032 40.9462 16.016C40.9462 11.592 37.1062 8 32.3782 8H32.3942Z" fill="#003876"/>
<path d="M35.1062 8.41602C37.9302 9.30402 39.3622 13.272 39.3622 16.016C39.3622 19.032 33.9062 25.576 31.8102 27.848L14.2102 46.92C13.9222 47.24 13.9302 47.728 14.2342 48.032L22.0022 55.768C22.1542 55.92 22.3542 56 22.5702 56H22.5782C22.7942 56 22.9942 55.904 23.1462 55.752L32.9622 45.456C33.4182 45.008 44.0662 34.296 44.0662 25.704C44.0662 18.44 41.2982 10.28 35.1062 8.41602Z" fill="#034EA1"/>
<path d="M29.6823 8.41602C29.6822 8.41602 29.6821 8.41603 29.682 8.41607C23.4901 10.2802 20.7222 18.4401 20.7222 25.704C20.7222 34.296 31.3782 45 31.8182 45.44L41.6502 55.752C41.8022 55.904 42.0022 56 42.2182 56H42.2262C42.4342 56 42.6422 55.92 42.7942 55.768L50.5622 48.032C50.8662 47.728 50.8742 47.24 50.5862 46.92L32.9862 27.848C30.8822 25.576 25.4342 19.032 25.4342 16.016C25.4342 13.2744 26.8636 9.31103 29.6827 8.41838C29.684 8.41796 29.6837 8.41602 29.6823 8.41602Z" fill="#ED1C24"/>
</svg>
