<svg width="64" height="64" viewBox="0 0 64 64" fill="none" xmlns="http://www.w3.org/2000/svg">
<path d="M39.3384 8.00099H35.8943C35.7136 7.99214 35.535 8.04302 35.3861 8.14577C35.2372 8.24852 35.1262 8.39743 35.0704 8.5695L34.1805 11.3874C34.1188 11.5723 34.1246 11.7732 34.1971 11.9542C34.2695 12.1352 34.4037 12.2847 34.576 12.3761L37.7399 14.024C37.8498 14.0828 37.9717 14.116 38.0963 14.1209C38.2209 14.1259 38.3449 14.1025 38.4592 14.0525C38.5734 14.0025 38.6748 13.9273 38.7557 13.8324C38.8367 13.7376 38.895 13.6256 38.9264 13.5049L40.1046 9.00619C40.1313 8.88864 40.1318 8.76669 40.1062 8.64891C40.0805 8.53114 40.0294 8.42043 39.9563 8.32457C39.8833 8.22872 39.79 8.15007 39.6833 8.09416C39.5765 8.03825 39.4588 8.00644 39.3384 8.00099Z" fill="#034EA1"/>
<path d="M34.1722 10.6046L33.3483 8.51183C33.2844 8.35607 33.1744 8.22362 33.033 8.13229C32.8916 8.04096 32.7256 7.99513 32.5573 8.00099H28.9814C28.8492 8.00104 28.7188 8.03295 28.6015 8.094C28.4841 8.15505 28.3832 8.24346 28.3073 8.35175C28.2313 8.46004 28.1825 8.58503 28.1651 8.71615C28.1476 8.84727 28.162 8.98067 28.2069 9.10506L29.1462 11.7087C28.4129 12.2607 27.3995 13.4802 26.1224 16.0756C25.4373 17.4541 25.1455 18.9949 25.2793 20.5284C25.413 22.062 25.967 23.529 26.8804 24.7681C26.938 24.8505 27.0142 24.9183 27.1029 24.9659C30.6458 27.0422 30.5552 27.1411 30.9589 27.1411C31.6428 27.1411 31.2143 27.1411 40.4507 16.9902C40.5329 16.8999 40.5941 16.7924 40.6297 16.6755C40.6653 16.5587 40.6745 16.4354 40.6566 16.3145C40.0222 12.1207 35.6636 10.893 34.1722 10.6046Z" fill="#034EA1"/>
<path d="M47.3553 22.5435C47.2743 22.3661 47.1329 22.2231 46.9564 22.1402C46.7799 22.0572 46.5796 22.0395 46.3913 22.0903L41.3158 23.4581C41.1839 23.4923 41.0624 23.5587 40.9624 23.6514C40.8624 23.7441 40.787 23.8602 40.7429 23.9892C40.6988 24.1182 40.6874 24.2562 40.7097 24.3907C40.7321 24.5252 40.7875 24.652 40.8709 24.7599L43.4169 28.0556C43.5434 28.2228 43.7289 28.3355 43.9355 28.3707C44.1422 28.4059 44.3545 28.361 44.5292 28.2451C44.7929 28.0639 47.1329 26.4737 47.6437 26.004C48.1545 25.5344 48.171 24.2902 47.3553 22.5435Z" fill="#ED1C24"/>
<path d="M42.8401 24.2326C40.9862 22.5847 38.1931 21.9256 37.641 22.0986C34.0898 23.2274 34.6996 27.7838 35.1692 31.442C35.1833 31.5529 35.2197 31.6597 35.2764 31.7561C35.3331 31.8524 35.4087 31.9362 35.4988 32.0023C36.0426 32.4061 36.0508 32.0023 44.4138 30.7747C44.6088 30.7431 44.7859 30.6425 44.9129 30.4913C45.04 30.34 45.1084 30.1482 45.1059 29.9507C45.1059 29.7859 44.9988 26.1688 42.8401 24.2326Z" fill="#034EA1"/>
<path d="M44.7434 15.746C44.3314 15.6389 35.2598 16.6771 33.2082 17.6082C30.9506 18.6463 29.5912 23.6559 29.344 24.6446C29.2956 24.8253 29.3101 25.0171 29.3852 25.1884C30.654 27.9815 32.994 29.5717 36.537 30.0496C36.6603 30.0664 36.7859 30.055 36.9042 30.0164C37.0225 29.9777 37.1305 29.9127 37.2201 29.8262C37.3097 29.7398 37.3786 29.6342 37.4215 29.5173C37.4645 29.4005 37.4803 29.2754 37.468 29.1515C37.2975 27.2935 37.5802 25.4218 38.2919 23.6971C39.1159 21.975 42.6835 21.3324 44.0595 21.2252C44.635 21.0765 45.1547 20.7636 45.5556 20.3248C45.9564 19.8859 46.221 19.34 46.3171 18.7534C46.4174 18.4528 46.456 18.1351 46.4307 17.8193C46.4053 17.5034 46.3165 17.1959 46.1696 16.9152C46.0227 16.6344 45.8207 16.3862 45.5756 16.1853C45.3306 15.9844 45.0475 15.835 44.7434 15.746Z" fill="#ED1C24"/>
<path d="M28.8743 26.3255L27.0699 18.0367C26.8557 13.7687 27.0699 13.6368 26.7156 13.2578C25.6774 12.0549 23.0491 11.6758 20.6761 13.4638C20.1241 13.8758 20.4207 14.4772 20.3466 16.0592C16.8036 18.1932 16.3834 18.0861 16.2269 18.7288C16.1282 19.3455 16.1282 19.9741 16.2269 20.5909C16.4164 21.8844 17.5287 22.5024 18.1302 22.3294L20.7997 21.5878C20.6844 22.8979 20.4537 24.5046 20.3383 25.2544C20.3051 25.4695 20.3584 25.6891 20.4865 25.8651C20.6147 26.0411 20.8072 26.1592 21.0222 26.1936C26.1389 27.0176 27.9515 27.3224 28.0504 27.3224C28.1748 27.3252 28.2983 27.2998 28.4114 27.248C28.5246 27.1963 28.6246 27.1195 28.7039 27.0236C28.7832 26.9277 28.8397 26.815 28.8692 26.6941C28.8988 26.5732 28.9005 26.4472 28.8743 26.3255Z" fill="#ED1C24"/>
<path d="M21.9038 43.6858C21.788 43.6441 21.6644 43.6289 21.5419 43.6413C21.4195 43.6537 21.3014 43.6933 21.1963 43.7573C21.0912 43.8213 21.0017 43.9081 20.9345 44.0112C20.8673 44.1143 20.8241 44.2311 20.808 44.3531C19.8028 51.8592 19.7616 51.5873 19.844 51.8839C20.0264 52.4802 20.3634 53.0177 20.8207 53.4417C21.278 53.8656 21.8393 54.1611 22.4476 54.2981C23.4446 54.5205 25.4138 54.7101 25.6939 53.7213C27.0205 49.0826 27.0205 49.2638 27.004 49.0249C26.8722 45.8527 24.2109 44.5097 21.9038 43.6858Z" fill="#ED1C24"/>
<path d="M20.7668 24.5623L16.4576 23.9031C16.2913 23.8849 16.1234 23.9177 15.9762 23.9971C15.8291 24.0766 15.7096 24.199 15.6336 24.348L14.8097 25.9465C14.7367 26.0938 14.7094 26.2597 14.7314 26.4227C14.7534 26.5857 14.8237 26.7383 14.9333 26.861C15.3452 27.3307 16.7871 28.855 17.9324 29.0939H18.0478C19.844 29.201 20.808 27.3472 21.4177 25.6416C21.4564 25.528 21.4698 25.4072 21.4569 25.2878C21.4441 25.1685 21.4053 25.0533 21.3433 24.9505C21.2813 24.8477 21.1976 24.7597 21.098 24.6926C20.9984 24.6256 20.8853 24.5811 20.7668 24.5623Z" fill="#ED1C24"/>
<path d="M20.1818 27.5366C20.1563 27.4173 20.1046 27.3052 20.0306 27.2083C19.9565 27.1114 19.8618 27.0321 19.7533 26.9763C19.1354 26.6632 19.0695 27.0587 13.9858 29.2092C13.8233 29.2823 13.6889 29.4061 13.6027 29.5621C13.5166 29.7181 13.4833 29.8978 13.5079 30.0743L13.7963 32.0106C13.827 32.222 13.9387 32.4133 14.1078 32.544C14.2769 32.6746 14.4902 32.7345 14.7026 32.7109C16.0794 32.5788 17.4351 32.28 18.7399 31.821C19.6957 31.2608 20.7256 30.0661 20.1818 27.5366Z" fill="#ED1C24"/>
<path d="M46.6467 30.6675C46.6126 30.6077 46.5711 30.5523 46.5231 30.5028C45.5413 29.5497 44.3035 28.9028 42.9605 28.641C41.6175 28.3791 40.2273 28.5135 38.9594 29.0279C36.655 28.4926 34.461 27.5614 32.475 26.2759C29.344 24.2655 24.7217 21.9173 20.7009 24.7022C16.8613 27.3553 16.2516 37.0613 18.1137 40.7278C19.844 44.1884 25.076 50.3432 29.9784 52.4278C32.9199 53.6719 40.5413 56.2591 43.491 55.9789C46.4407 55.6988 49.9342 50.2114 50.0825 43.6693C50.1979 37.0283 46.795 30.923 46.6467 30.6675Z" fill="#034EA1"/>
<path d="M22.357 35.8006C25.4056 34.5153 30.4234 31.3596 30.9589 26.3171C30.9882 26.0234 31.035 25.7318 31.099 25.4437C28.0751 23.7134 24.1614 22.2963 20.6927 24.7022C16.8531 27.3552 16.2434 37.0612 18.1055 40.7278C18.2538 41.0326 18.4433 41.3622 18.6493 41.7L18.8388 40.357C19.0161 39.3708 19.4284 38.4418 20.0408 37.6486C20.6532 36.8555 21.4477 36.2216 22.357 35.8006Z" fill="#034EA1"/>
<path d="M36.7418 25.6691C36.6099 25.3479 36.2799 25.2194 36.0159 25.3607C35.7409 25.5149 35.6199 25.9004 35.7519 26.2217C36.6319 28.3676 37.0498 31.4131 35.8619 35.5508C34.9379 38.789 33.024 42.6826 29.5811 47.3086C29.3831 47.5785 29.4161 47.9897 29.6471 48.221C29.8671 48.4523 30.2191 48.4137 30.4171 48.1567C33.948 43.3894 35.9279 39.3416 36.9068 35.9492C38.1938 31.4388 37.7208 28.0592 36.7418 25.6691Z" fill="#ED1C24"/>
</svg>
