<svg width="64" height="64" viewBox="0 0 64 64" fill="none" xmlns="http://www.w3.org/2000/svg">
<path d="M39.8384 8.00099H36.3943C36.2136 7.99214 36.035 8.04302 35.8861 8.14577C35.7372 8.24852 35.6262 8.39743 35.5704 8.5695L34.6805 11.3874C34.6188 11.5723 34.6247 11.7732 34.6971 11.9542C34.7695 12.1352 34.9038 12.2847 35.076 12.3761L38.2399 14.024C38.3498 14.0828 38.4717 14.116 38.5963 14.1209C38.7209 14.1259 38.845 14.1025 38.9592 14.0525C39.0734 14.0025 39.1748 13.9273 39.2558 13.8324C39.3367 13.7376 39.395 13.6256 39.4264 13.5049L40.6046 9.00619C40.6313 8.88864 40.6318 8.76669 40.6062 8.64891C40.5806 8.53114 40.5294 8.42043 40.4563 8.32457C40.3833 8.22872 40.2901 8.15007 40.1833 8.09416C40.0765 8.03825 39.9588 8.00644 39.8384 8.00099Z" fill="#034EA1"/>
<path d="M34.6723 10.6046L33.8483 8.51183C33.7845 8.35607 33.6744 8.22362 33.533 8.13229C33.3916 8.04096 33.2256 7.99513 33.0574 8.00099H29.4815C29.3492 8.00104 29.2189 8.03295 29.1015 8.094C28.9842 8.15505 28.8833 8.24346 28.8073 8.35175C28.7313 8.46004 28.6825 8.58503 28.6651 8.71615C28.6476 8.84727 28.662 8.98067 28.707 9.10506L29.6462 11.7087C28.9129 12.2607 27.8995 13.4802 26.6224 16.0756C25.9373 17.4541 25.6456 18.9949 25.7793 20.5284C25.913 22.062 26.467 23.529 27.3804 24.7681C27.4381 24.8505 27.5143 24.9183 27.6029 24.9659C31.1458 27.0422 31.0552 27.1411 31.4589 27.1411C32.1428 27.1411 31.7143 27.1411 40.9507 16.9902C41.033 16.8999 41.0941 16.7924 41.1297 16.6755C41.1654 16.5587 41.1746 16.4354 41.1567 16.3145C40.5222 12.1207 36.1636 10.893 34.6723 10.6046Z" fill="#034EA1"/>
<path d="M47.8553 22.5435C47.7742 22.3661 47.6329 22.2231 47.4564 22.1402C47.2798 22.0572 47.0796 22.0395 46.8913 22.0903L41.8158 23.4581C41.6838 23.4923 41.5624 23.5587 41.4624 23.6514C41.3624 23.7441 41.287 23.8602 41.2429 23.9892C41.1988 24.1182 41.1874 24.2562 41.2097 24.3907C41.2321 24.5252 41.2874 24.652 41.3709 24.7599L43.9169 28.0556C44.0434 28.2228 44.2288 28.3355 44.4355 28.3707C44.6421 28.4059 44.8545 28.361 45.0292 28.2451C45.2928 28.0639 47.6328 26.4737 48.1437 26.004C48.6545 25.5344 48.671 24.2902 47.8553 22.5435Z" fill="#ED1C24"/>
<path d="M43.3401 24.2326C41.4862 22.5847 38.6931 21.9256 38.1411 22.0986C34.5899 23.2274 35.1996 27.7838 35.6692 31.442C35.6833 31.5529 35.7198 31.6597 35.7764 31.7561C35.8331 31.8524 35.9088 31.9362 35.9988 32.0023C36.5426 32.4061 36.5509 32.0023 44.9138 30.7747C45.1088 30.7431 45.2859 30.6425 45.413 30.4913C45.54 30.34 45.6085 30.1482 45.6059 29.9507C45.6059 29.7859 45.4988 26.1688 43.3401 24.2326Z" fill="#034EA1"/>
<path d="M45.2434 15.746C44.8314 15.6389 35.7599 16.6771 33.7083 17.6082C31.4507 18.6463 30.0912 23.6559 29.844 24.6446C29.7956 24.8253 29.8101 25.0171 29.8852 25.1884C31.1541 27.9815 33.494 29.5717 37.037 30.0496C37.1603 30.0664 37.2859 30.055 37.4042 30.0164C37.5225 29.9777 37.6306 29.9127 37.7202 29.8262C37.8098 29.7398 37.8786 29.6342 37.9216 29.5173C37.9645 29.4005 37.9804 29.2754 37.968 29.1515C37.7975 27.2935 38.0802 25.4218 38.792 23.6971C39.6159 21.975 43.1836 21.3324 44.5595 21.2252C45.135 21.0765 45.6548 20.7636 46.0556 20.3248C46.4564 19.8859 46.721 19.34 46.8171 18.7534C46.9174 18.4528 46.956 18.1351 46.9307 17.8193C46.9053 17.5034 46.8166 17.1959 46.6696 16.9152C46.5227 16.6344 46.3207 16.3862 46.0756 16.1853C45.8306 15.9844 45.5475 15.835 45.2434 15.746Z" fill="#ED1C24"/>
<path d="M29.3743 26.3255L27.5699 18.0367C27.3557 13.7687 27.5699 13.6368 27.2156 13.2578C26.1775 12.0549 23.5491 11.6758 21.1762 13.4638C20.6241 13.8758 20.9207 14.4772 20.8466 16.0592C17.3036 18.1932 16.8834 18.0861 16.7269 18.7288C16.6282 19.3455 16.6282 19.9741 16.7269 20.5909C16.9164 21.8844 18.0287 22.5024 18.6302 22.3294L21.2998 21.5878C21.1844 22.8979 20.9537 24.5046 20.8383 25.2544C20.8051 25.4695 20.8584 25.6891 20.9865 25.8651C21.1147 26.0411 21.3073 26.1592 21.5222 26.1936C26.6389 27.0176 28.4515 27.3224 28.5504 27.3224C28.6748 27.3252 28.7983 27.2998 28.9115 27.248C29.0247 27.1963 29.1247 27.1195 29.2039 27.0236C29.2832 26.9277 29.3398 26.815 29.3693 26.6941C29.3988 26.5732 29.4005 26.4472 29.3743 26.3255Z" fill="#ED1C24"/>
<path d="M22.4038 43.6858C22.288 43.6441 22.1644 43.6289 22.0419 43.6413C21.9195 43.6537 21.8014 43.6933 21.6963 43.7573C21.5912 43.8213 21.5017 43.9081 21.4345 44.0112C21.3673 44.1143 21.3241 44.2311 21.308 44.3531C20.3028 51.8592 20.2616 51.5873 20.344 51.8839C20.5264 52.4802 20.8634 53.0177 21.3207 53.4417C21.778 53.8656 22.3393 54.1611 22.9476 54.2981C23.9446 54.5205 25.9138 54.7101 26.1939 53.7213C27.5205 49.0826 27.5205 49.2638 27.504 49.0249C27.3722 45.8527 24.7109 44.5097 22.4038 43.6858Z" fill="#ED1C24"/>
<path d="M21.2668 24.5623L16.9576 23.9031C16.7913 23.8849 16.6234 23.9177 16.4763 23.9971C16.3291 24.0766 16.2096 24.199 16.1337 24.348L15.3097 25.9465C15.2367 26.0938 15.2094 26.2597 15.2314 26.4227C15.2535 26.5857 15.3238 26.7383 15.4333 26.861C15.8453 27.3307 17.2872 28.855 18.4324 29.0939H18.5478C20.344 29.201 21.308 27.3472 21.9177 25.6416C21.9564 25.528 21.9698 25.4072 21.9569 25.2878C21.9441 25.1685 21.9053 25.0533 21.8433 24.9505C21.7813 24.8477 21.6976 24.7597 21.598 24.6926C21.4984 24.6256 21.3854 24.5811 21.2668 24.5623Z" fill="#ED1C24"/>
<path d="M20.6818 27.5366C20.6563 27.4173 20.6046 27.3052 20.5306 27.2083C20.4565 27.1114 20.3618 27.0321 20.2533 26.9763C19.6354 26.6632 19.5695 27.0587 14.4858 29.2092C14.3233 29.2823 14.1889 29.4061 14.1027 29.5621C14.0166 29.7181 13.9833 29.8978 14.0079 30.0743L14.2963 32.0106C14.327 32.222 14.4387 32.4133 14.6078 32.544C14.7769 32.6746 14.9902 32.7345 15.2026 32.7109C16.5794 32.5788 17.9351 32.28 19.2399 31.821C20.1957 31.2608 21.2256 30.0661 20.6818 27.5366Z" fill="#ED1C24"/>
<path d="M47.1467 30.6675C47.1126 30.6077 47.071 30.5523 47.0231 30.5028C46.0413 29.5497 44.8035 28.9028 43.4605 28.641C42.1175 28.3791 40.7273 28.5135 39.4594 29.0279C37.155 28.4926 34.961 27.5614 32.975 26.2759C29.844 24.2655 25.2217 21.9173 21.2009 24.7022C17.3613 27.3553 16.7516 37.0613 18.6137 40.7278C20.344 44.1884 25.576 50.3432 30.4784 52.4278C33.4199 53.6719 41.0413 56.2591 43.991 55.9789C46.9407 55.6988 50.4342 50.2114 50.5825 43.6693C50.6979 37.0283 47.295 30.923 47.1467 30.6675Z" fill="#034EA1"/>
<path d="M22.857 35.8006C25.9056 34.5153 30.9234 31.3596 31.4589 26.3171C31.4882 26.0234 31.535 25.7318 31.599 25.4437C28.5751 23.7134 24.6614 22.2963 21.1926 24.7022C17.3531 27.3552 16.7434 37.0612 18.6055 40.7278C18.7538 41.0326 18.9433 41.3622 19.1493 41.7L19.3388 40.357C19.5161 39.3708 19.9284 38.4418 20.5408 37.6486C21.1532 36.8555 21.9477 36.2216 22.857 35.8006Z" fill="#034EA1"/>
<path d="M37.2418 25.6691C37.1098 25.3479 36.7799 25.2194 36.5159 25.3607C36.2409 25.5149 36.1199 25.9004 36.2519 26.2217C37.1318 28.3676 37.5498 31.4131 36.3619 35.5508C35.4379 38.789 33.524 42.6826 30.0811 47.3086C29.8831 47.5785 29.9161 47.9897 30.1471 48.221C30.3671 48.4523 30.7191 48.4137 30.9171 48.1567C34.4479 43.3894 36.4279 39.3416 37.4068 35.9492C38.6938 31.4388 38.2208 28.0592 37.2418 25.6691Z" fill="#ED1C24"/>
</svg>
