<svg width="64" height="64" viewBox="0 0 64 64" fill="none" xmlns="http://www.w3.org/2000/svg">
<path d="M19.0298 55.9611C18.2002 55.7742 17.4152 55.1982 16.8776 54.3821C16.6892 54.095 16.0346 52.6994 15.7536 51.9845C14.7263 49.3692 13.8353 46.5739 13.323 44.3623C13.238 43.9955 13.1412 43.5823 13.1076 43.4426C13.0739 43.3037 13.0083 42.9968 12.9629 42.7611C12.9174 42.5262 12.8476 42.1842 12.8064 42.0008C12.766 41.8173 12.6903 41.4084 12.6381 41.0921C12.5859 40.775 12.5363 40.4964 12.5279 40.4741C12.4909 40.3721 12.2124 38.3834 12.1232 37.5793C12.0971 37.353 12.0626 37.0504 12.045 36.9081C11.9103 35.8221 11.8615 34.742 11.843 32.3976L11.8312 30.8308C11.829 30.535 11.7854 30.2409 11.7017 29.9571C11.6319 29.7223 11.5132 29.3605 11.4375 29.1548C11.2911 28.7545 11.0294 27.9076 10.8292 27.1841C10.7611 26.9398 10.6584 26.5832 10.5995 26.3921C10.4472 25.8949 10.2865 25.1405 10.21 24.5697C10.056 23.4167 10.0569 21.6132 10.2125 19.9734C10.231 19.7908 10.2504 19.5628 10.2579 19.4668C10.2983 18.9593 10.4876 17.8484 10.666 17.0735C10.9672 15.7645 11.4526 14.429 12.0525 13.2547C13.1454 11.1177 14.5193 9.72386 16.3711 8.87438C16.9912 8.59065 17.3698 8.47149 18.3618 8.25034C19.0146 8.10547 19.7231 8.0309 20.6948 8.00432C21.8929 7.97261 23.409 8.11833 24.2411 8.34634C24.3698 8.38149 24.7408 8.46635 25.0656 8.53407C26.0146 8.73294 28.5664 9.43327 29.0367 9.62442C29.2277 9.70157 30.8725 10.1987 31.8182 10.4653C32.1252 10.5517 32.4501 10.5516 32.7571 10.4652L32.97 10.4053C33.5876 10.2313 34.4441 9.97073 35.8752 9.52156C37.2684 9.08439 38.7257 8.68922 39.5771 8.51778C39.8085 8.47149 40.1299 8.39863 40.2931 8.35663C40.8046 8.22548 41.1681 8.16719 42.1903 8.05147C42.6615 7.99832 44.3534 7.99832 44.8809 8.05061C46.0807 8.17062 47.1206 8.42263 48.0343 8.81609C50.067 9.68871 51.6336 11.3534 52.7517 13.8281C53.7176 15.9668 54.1954 18.0884 54.3704 21.0243C54.4277 21.9921 54.4075 23.3696 54.3225 24.1728C54.2585 24.784 54.0962 25.5966 53.8984 26.2892C53.4273 27.9453 53.344 28.2187 53.0066 29.2285C52.7714 29.9323 52.6474 30.6684 52.6392 31.4104L52.6289 32.3504C52.607 34.4463 52.5876 35.0172 52.5035 35.9472C52.4143 36.9236 52.2444 38.3928 52.1586 38.9268C52.1325 39.0923 52.0828 39.406 52.05 39.6238C51.7926 41.3364 51.4257 43.1245 50.9487 44.9958C50.6828 46.0382 50.6963 45.9902 50.4187 46.9288C50.0199 48.2746 49.8583 48.7538 49.1221 50.7596C48.9185 51.3142 48.6695 51.9708 48.5685 52.2168C48.3624 52.7217 47.8273 53.8901 47.7036 54.1078C47.4706 54.5158 46.9599 55.0833 46.5754 55.361C45.8863 55.8565 45.1485 56.0511 44.7101 55.8514C44.2104 55.6233 43.4633 54.875 42.9332 54.0727C41.9926 52.648 41.5399 51.3022 41.3027 49.2269C41.2581 48.8343 41.1883 48.278 41.147 47.9909C41.1067 47.7028 41.0654 47.3968 41.0537 47.3094C41.0208 47.0368 40.8526 46.1633 40.707 45.5033C40.3436 43.854 39.6688 41.7607 39.0807 40.4535C38.6062 39.3983 37.8061 38.0037 37.2844 37.3213C36.788 36.6716 35.8247 35.6755 35.1819 35.1458C34.6544 34.712 33.6767 34.0803 33.1551 33.8368C32.9481 33.7408 32.4896 33.6354 32.2725 33.6345C32.0058 33.6328 31.5296 33.7545 31.2612 33.8917C30.6723 34.1934 29.9117 34.6923 29.295 35.1818C28.8407 35.5426 27.7528 36.6527 27.3498 37.1679C26.5135 38.2368 25.5931 39.9272 25.0109 41.4616C24.5347 42.7182 24.0551 44.2826 23.8053 45.3918C23.5932 46.3322 23.3501 47.7294 23.2744 48.4349C23.2559 48.6003 23.2222 48.8712 23.1978 49.0366C23.1717 49.2021 23.1398 49.4875 23.1221 49.671C23.0565 50.3799 22.7839 51.5174 22.5079 52.2374C22.2025 53.0329 21.7011 53.9261 21.1643 54.6307C20.9237 54.9461 20.296 55.5668 20.0478 55.7331C19.6574 55.9954 19.4193 56.0485 19.0298 55.9611Z" fill="#034EA1"/>
<path d="M18.773 55.9671C18.0211 55.7893 17.3629 55.3215 16.8001 54.5638C16.3752 53.9915 15.8348 52.7593 14.8604 50.1389C14.3508 48.7676 13.6436 46.4448 13.3382 45.1376C13.2967 44.9572 13.2361 44.7237 13.2037 44.6184C13.1714 44.513 13.0759 44.0992 12.9904 43.6989C12.9049 43.2985 12.8211 42.9192 12.8037 42.856C12.7531 42.6765 12.5348 41.4814 12.4194 40.7616C12.3621 40.4034 12.3082 40.0907 12.2999 40.0671C12.2924 40.0443 12.2559 39.7974 12.221 39.5192C12.1845 39.2411 12.1447 38.9436 12.1289 38.8576C12.0766 38.5854 11.9048 36.9874 11.821 35.9911C11.7629 35.2983 11.7322 34.099 11.7313 32.4538L11.7297 30.8178L11.6267 30.5068C10.9802 28.5582 10.8922 28.2733 10.5278 26.9543C10.4614 26.7141 10.3801 26.4334 10.3477 26.3306C10.2747 26.0971 10.1386 25.3023 10.0846 24.7882C9.9792 23.7945 9.97422 23.1295 10.0589 21.4228C10.1054 20.4788 10.273 19.196 10.478 18.2133C10.9395 16.0008 11.8683 13.8103 12.9539 12.3724C13.0328 12.2679 13.1199 12.1482 13.1473 12.1052C13.2394 11.9611 14.0719 11.1031 14.291 10.9261C14.4097 10.83 14.5268 10.7323 14.5508 10.7087C14.6629 10.5983 15.3651 10.1473 15.7469 9.94169C16.1785 9.70991 16.4449 9.59528 16.9163 9.44105C17.0599 9.39385 17.1902 9.34243 17.2068 9.32726C17.2209 9.31294 17.2558 9.30029 17.2799 9.30029C17.3172 9.30029 17.3214 9.34749 17.3056 9.58854C17.089 12.584 17.1346 15.5423 17.4425 18.4307C17.8318 22.0785 18.8295 25.9614 20.5418 30.495C21.4357 32.8617 22.279 34.6165 23.5414 36.7387C24.0991 37.676 25.0038 39.0599 25.4114 39.6002L25.5483 39.7822L25.4495 40.0056C25.3948 40.1286 25.3051 40.3132 25.2503 40.416C24.8005 41.2614 23.841 44.0267 23.5796 45.2311C23.5613 45.3078 23.4949 45.6163 23.4277 45.9163C23.2301 46.8047 22.9388 48.6058 22.8865 49.2666C22.8682 49.5119 22.7828 50.1347 22.7471 50.3024C22.7321 50.3749 22.7047 50.5359 22.6873 50.6607C22.6483 50.9413 22.4989 51.5203 22.3777 51.8583C22.3279 51.9982 22.2474 52.2233 22.1993 52.3573C22.0573 52.7517 21.6747 53.5153 21.4041 53.941C20.9344 54.6818 20.433 55.2625 19.9334 55.6426C19.7773 55.7615 19.5839 55.8879 19.5043 55.9242C19.32 56.0059 19.0154 56.0236 18.7747 55.9671H18.773Z" fill="#ED1C24"/>
</svg>
