<svg width="64" height="64" viewBox="0 0 64 64" fill="none" xmlns="http://www.w3.org/2000/svg">
<path d="M35.033 9.3797V23.2254C35.033 25.0535 33.551 26.5355 31.7229 26.5355C29.8948 26.5355 28.4128 25.0535 28.4128 23.2254V9.3797C28.4128 8.61795 29.0619 8 29.8622 8H33.5836C34.3841 8 35.033 8.61795 35.033 9.3797Z" fill="#034EA1"/>
<path d="M47.2167 24.0881V47.2574C47.2167 47.5587 47.2013 47.8525 47.1704 48.1459V48.1534C46.9696 50.1615 46.0813 51.9686 44.7377 53.3435C43.8803 54.2391 42.8144 54.9496 41.633 55.4055C40.6521 55.7917 39.5862 56.0002 38.4741 56.0002H24.7502C19.9155 56.0002 16 52.0844 16 47.2574V24.0881C16 23.7872 16.0153 23.4859 16.0462 23.1925C16.4942 18.7826 20.2168 15.3381 24.7502 15.3381H38.4741C43.3011 15.3381 47.2167 19.2536 47.2167 24.0881Z" fill="#034EA1"/>
<path d="M24.7465 39.8586C23.0748 39.8586 21.7149 38.4987 21.7149 36.8272V24.0841C21.7149 22.4126 23.0748 21.0527 24.7465 21.0527H38.4701C40.1418 21.0527 41.5016 22.4126 41.5016 24.0841V36.8272C41.5016 38.4987 40.1418 39.8586 38.4701 39.8586H24.7465Z" fill="#ED1C24"/>
<path d="M34.4735 48.8527C34.4735 50.4352 33.1909 51.7178 31.6083 51.7178C30.0256 51.7178 28.743 50.4352 28.743 48.8527C28.743 47.2701 30.0256 45.9949 31.6083 45.9949C33.1909 45.9949 34.4735 47.2701 34.4735 48.8527Z" fill="#ED1C24"/>
<path d="M41.5936 49.4468L38.4126 51.7917C37.9309 52.1463 37.2401 51.8006 37.2401 51.201V46.5112C37.2401 45.9112 37.9309 45.5659 38.4126 45.9205L41.5936 48.2654C41.9935 48.5561 41.9935 49.1561 41.5936 49.4468ZM21.6229 49.4468L24.8039 51.7917C25.2856 52.1463 25.9764 51.8006 25.9764 51.201V46.5112C25.9764 45.9112 25.2856 45.5659 24.8039 45.9205L21.6229 48.2654C21.223 48.5561 21.223 49.1561 21.6229 49.4468Z" fill="#ED1C24"/>
<path d="M26.9255 31.6711H26.39V27.8869C26.39 27.7538 26.3402 27.6342 26.2467 27.5407C26.1532 27.4472 26.0336 27.3981 25.9009 27.3981H25.7542C25.6656 27.3981 25.5766 27.42 25.4876 27.4645L24.5422 27.9578C24.3702 28.0437 24.2752 28.1946 24.2752 28.382C24.2752 28.5106 24.32 28.623 24.4041 28.7075C24.4886 28.7915 24.601 28.836 24.7296 28.836C24.7933 28.836 24.8653 28.8183 24.9577 28.7787L25.4465 28.5393V31.6711H24.7714C24.6462 31.6711 24.5354 31.7175 24.4509 31.8057C24.3679 31.8917 24.3242 32.0026 24.3242 32.1255C24.3242 32.25 24.3687 32.3601 24.4532 32.4438C24.5376 32.5283 24.6474 32.5728 24.7714 32.5728H26.9255C27.0484 32.5728 27.1589 32.529 27.2449 32.4461C27.3331 32.3616 27.3799 32.2507 27.3799 32.1255C27.3799 32.0015 27.3339 31.8902 27.2475 31.8035C27.1608 31.7168 27.0495 31.6711 26.9255 31.6711ZM30.1041 27.328C29.4408 27.328 28.926 27.5776 28.5742 28.069C28.2336 28.5445 28.0605 29.189 28.0605 29.9851C28.0605 30.7815 28.2336 31.4264 28.5742 31.9015C28.926 32.3933 29.4408 32.6422 30.1041 32.6422C30.7625 32.6422 31.2761 32.3933 31.6306 31.9023C31.9738 31.4268 32.148 30.7819 32.148 29.9851C32.148 29.1886 31.9738 28.5438 31.6306 28.0686C31.2761 27.5773 30.7625 27.328 30.1041 27.328ZM30.1041 31.7477C29.753 31.7477 29.4913 31.6048 29.3039 31.3102C29.1048 30.998 29.0041 30.5519 29.0041 29.9851C29.0041 29.4232 29.1048 28.9797 29.3039 28.6671C29.4917 28.3726 29.7534 28.2297 30.1041 28.2297C30.4552 28.2297 30.7169 28.3726 30.9047 28.6671C31.1038 28.9797 31.2045 29.4232 31.2045 29.9851C31.2045 30.5519 31.1038 30.998 30.9047 31.3102C30.7176 31.6048 30.4552 31.7477 30.1041 31.7477ZM33.2344 31.4618H33.1647C33.0157 31.4618 32.8864 31.5161 32.7804 31.6221C32.6737 31.7281 32.6197 31.8578 32.6197 32.0071V32.0486C32.6197 32.1979 32.6737 32.3269 32.78 32.4333C32.886 32.5396 33.0157 32.5935 33.1647 32.5935H33.2344C33.383 32.5935 33.5124 32.5396 33.6191 32.4333C33.7254 32.3269 33.7793 32.1972 33.7793 32.0486V32.0071C33.7793 31.8585 33.7254 31.7288 33.6187 31.6217C33.512 31.5158 33.3826 31.4618 33.2344 31.4618ZM38.0821 29.967C37.9335 29.6958 37.7246 29.4832 37.461 29.335C37.1993 29.1875 36.8935 29.1128 36.5522 29.1128C36.1815 29.1128 35.8655 29.1769 35.6121 29.3033C35.5099 29.3546 35.4156 29.4111 35.3292 29.4737C35.3839 29.2052 35.4786 28.9545 35.6125 28.7248C35.798 28.4058 36.1166 28.2504 36.5873 28.2504C36.8927 28.2504 37.1827 28.3138 37.4603 28.4427C37.6288 28.5061 37.8302 28.4691 37.952 28.3368C38.0312 28.2508 38.0734 28.1459 38.0734 28.0332C38.0734 27.954 38.0519 27.8778 38.0093 27.8077C37.9675 27.7383 37.9132 27.684 37.8426 27.6448C37.6624 27.5524 37.4674 27.4758 37.2642 27.4178C37.0556 27.3582 36.8116 27.328 36.5382 27.328C36.0246 27.328 35.5974 27.4683 35.2682 27.7443C34.9461 28.0143 34.7108 28.3575 34.5694 28.7633C34.4321 29.1588 34.3623 29.5722 34.3623 29.9922C34.3623 31.7507 35.057 32.6422 36.427 32.6422C36.7996 32.6422 37.1311 32.566 37.4131 32.4151C37.6978 32.262 37.92 32.0501 38.0734 31.7846C38.2258 31.5203 38.3035 31.2243 38.3035 30.9052C38.3035 30.5515 38.2288 30.2355 38.0821 29.967ZM36.4338 31.7409C35.8063 31.7409 35.4409 31.3811 35.3187 30.6412C35.5668 30.2102 35.9458 30.0002 36.4756 30.0002C36.7724 30.0002 36.9885 30.0779 37.136 30.2366C37.2864 30.3991 37.3596 30.6133 37.3596 30.8916C37.3596 31.0466 37.323 31.1858 37.248 31.3163C37.1733 31.446 37.0688 31.5463 36.9278 31.624C36.7864 31.7017 36.6205 31.7409 36.4338 31.7409Z" fill="#003876"/>
</svg>
