<svg width="64" height="64" viewBox="0 0 64 64" fill="none" xmlns="http://www.w3.org/2000/svg">
<path d="M12.5468 55.9994C11.6009 48.3529 14.6259 47.2738 16.8874 47.4688C17.9446 47.5597 18.9552 47.9454 19.8212 48.5588C22.423 50.4016 25.2458 52.0235 28.2889 53.015C32.3517 54.3391 36.9698 53.86 41.0166 52.6635C43.3135 51.9844 45.5169 50.9675 47.4294 49.5191C51.7587 46.241 55.2425 40.6692 55.4509 35.127C55.4556 35.0026 55.46 34.8786 55.4637 34.7542C55.5475 32.0823 55.46 29.3914 55.0397 26.7483C54.7287 24.7921 54.2325 22.8487 53.4165 21.039C52.7975 19.6655 51.9862 18.3687 50.9384 17.2806C50.0809 16.3903 49.0697 15.6521 47.9494 15.1275C46.9541 14.6612 45.8838 14.3662 44.7938 14.2337C44.2182 14.1637 43.6441 14.1396 43.0657 14.1718C41.5998 14.2537 40.0726 14.3756 38.7551 15.0843C38.0288 15.475 37.4045 16.0262 36.7282 16.4978C36.2142 16.8562 35.6617 17.1724 35.0582 17.3409C34.9126 17.3815 34.7642 17.4131 34.6142 17.434C33.5754 17.5796 32.3501 17.1746 31.5204 16.5371C30.9161 16.0724 30.4933 15.4265 30.2745 14.699C29.8448 13.2706 30.1192 11.69 30.5376 10.2925C30.8615 9.21094 30.0994 8 28.9704 8H28.1739C27.3753 8 26.6544 8.47286 26.4133 9.23417C25.3977 12.4412 23.6732 20.8783 33.0901 22.1633C35.1301 22.4418 36.8313 23.8846 37.3823 25.868C37.8998 27.7311 37.9242 30.4774 36.5363 34.4417C35.2985 37.9773 32.3976 40.6985 28.773 41.6435C26.7545 42.1698 24.2836 42.2376 21.3655 41.3223C12.6828 38.5983 7.95789 44.6343 8.00028 53.8607C8.00583 55.0688 9.02311 56 10.2312 56H12.5462C12.5465 56 12.5468 55.9997 12.5468 55.9994Z" fill="#034EA1"/>
<path d="M45.2075 32.3217C47.2106 30.3061 50.1647 31.9642 50.3072 34.5114C50.4759 37.5338 48.7372 40.7132 46.8581 42.9588C42.2788 48.4316 33.8035 50.1638 27.4111 47.1066C31.4007 46.7228 35.161 44.8982 37.8954 41.9632C40.6597 38.9966 42.3125 35.2457 45.2075 32.3217Z" fill="#ED1C24"/>
</svg>
