<svg width="64" height="64" viewBox="0 0 64 64" fill="none" xmlns="http://www.w3.org/2000/svg">
<path d="M37.1236 12C37.1236 9.79086 35.3327 8 33.1236 8H14.1573C11.9482 8 10.1573 9.79086 10.1573 12V16.6292H11.7753V17.7079L11.527 17.8497C9.346 19.096 8 21.4154 8 23.9274V41.4495C8 45.3155 11.134 48.4495 15 48.4495H32.2809C36.1469 48.4495 39.2809 45.3155 39.2809 41.4495V23.9274C39.2809 21.4154 37.9349 19.096 35.7539 17.8497L35.5056 17.7079V16.6292H37.1236V12Z" fill="#034EA1"/>
<path d="M33.3763 55.9999L51.3877 55.9999C53.4138 55.9999 55.0562 54.3189 55.0562 52.2453L55.0562 38.7208C55.0562 36.6472 53.4138 34.9662 51.3877 34.9662L33.3763 34.9662C31.3503 34.9662 29.7079 36.6472 29.7079 38.7208L29.7079 52.2453C29.7079 54.3189 31.3503 55.9999 33.3763 55.9999Z" fill="#ED1C24"/>
<path d="M43.7652 49.7495C43.7652 51.6683 45.3269 53.2238 47.2534 53.2238C49.1799 53.2238 50.7417 51.6683 50.7417 49.7495C50.7417 47.8307 49.1799 46.2751 47.2534 46.2751C45.3269 46.2751 43.7652 47.8307 43.7652 49.7495Z" fill="#034EA1"/>
<path d="M34.0573 49.7495C34.0573 51.6683 35.6191 53.2238 37.5456 53.2238C39.4721 53.2238 41.0338 51.6683 41.0338 49.7495C41.0338 47.8307 39.4721 46.2751 37.5456 46.2751C35.6191 46.2751 34.0573 47.8307 34.0573 49.7495Z" fill="#034EA1"/>
<path d="M34.0573 41.1836C34.0573 43.1024 35.6191 44.6579 37.5456 44.6579C39.4721 44.6579 41.0338 43.1024 41.0338 41.1836C41.0338 39.2647 39.4721 37.7092 37.5456 37.7092C35.6191 37.7092 34.0573 39.2647 34.0573 41.1836Z" fill="#034EA1"/>
<path d="M43.7652 41.1836C43.7652 43.1024 45.3269 44.6579 47.2534 44.6579C49.1799 44.6579 50.7417 43.1024 50.7417 41.1836C50.7417 39.2647 49.1799 37.7092 47.2534 37.7092C45.3269 37.7092 43.7652 39.2647 43.7652 41.1836Z" fill="#034EA1"/>
<path d="M35.7753 16.7642H11.5056V17.7754H35.7753V16.7642Z" fill="#ED1C24"/>
<path d="M32.2024 28.2247H16.5619V33.0787H32.2024V28.2247Z" fill="#ED1C24"/>
<path d="M21.9548 22.8316V37.9327H26.8088V22.8316H21.9548Z" fill="#ED1C24"/>
</svg>
