<svg width="64" height="64" viewBox="0 0 64 64" fill="none" xmlns="http://www.w3.org/2000/svg">
<path d="M25.5365 24.5045C25.1052 24.4252 24.6598 24.5127 24.2905 24.7493C23.9212 24.986 23.6557 25.3542 23.5476 25.7793L22.974 28.0428L16.8929 52.7057C16.7295 53.3678 16.8131 54.0667 17.128 54.6716C17.4428 55.2764 17.9674 55.7458 18.6034 55.9918L26.7072 36.8533L30.4404 28.0428L32.8839 22.2766L29.3222 20.9363L28.205 23.7163C28.08 24.0115 27.8715 24.2639 27.6051 24.4422C27.3387 24.6205 27.0259 24.7171 26.7053 24.7201L25.5365 24.5045Z" fill="#034EA1"/>
<path d="M26.7022 24.7201C26.3815 24.7175 26.0686 24.6211 25.8021 24.4427C25.5356 24.2643 25.3272 24.0118 25.2026 23.7163L24.0844 20.9363L20.5227 22.2766L22.9596 28.0419L26.7022 36.8533L34.806 55.9881C35.4422 55.7422 35.9668 55.2729 36.2817 54.6679C36.5966 54.063 36.6801 53.364 36.5166 52.7019L30.4354 28.0428L29.8618 25.7802C29.754 25.3552 29.4886 24.987 29.1195 24.7504C28.7504 24.5137 28.3051 24.4261 27.8738 24.5055L26.7022 24.7201Z" fill="#ED1C24"/>
<path d="M54.0355 40.3791L52.9877 39.6808C52.4112 39.2975 52.0654 36.7752 52.0654 36.0835V31.8798C52.0185 31.8919 51.9716 31.906 51.9238 31.9163H51.9032C51.2265 32.0496 50.5384 32.1162 49.8487 32.115C49.1604 32.1173 48.4735 32.052 47.7979 31.9201H47.7773C47.7295 31.9098 47.6835 31.8957 47.6357 31.8835V52.785C47.6357 55.835 47.8007 55.9999 48.005 55.9999C48.0669 55.9999 48.1288 55.9999 48.1925 55.9934V55.9999C49.8083 55.9999 51.3579 55.3581 52.5004 54.2155C53.643 53.073 54.2849 51.5234 54.2849 49.9076V40.8402C54.2844 40.7488 54.2614 40.6589 54.2179 40.5785C54.1744 40.4981 54.1118 40.4296 54.0355 40.3791Z" fill="#ED1C24"/>
<path d="M30.4354 28.0424L29.8618 25.7797C29.754 25.3547 29.4886 24.9866 29.1195 24.7499C28.7504 24.5132 28.3051 24.4257 27.8738 24.505L26.7022 24.7206C26.3815 24.718 26.0686 24.6215 25.8021 24.4432C25.5356 24.2648 25.3272 24.0122 25.2026 23.7168L24.0844 20.9368L20.5227 22.2771L22.9596 28.0424L26.7022 36.8529L28.619 41.3772C30.1541 40.3808 31.5806 39.2263 32.8752 37.9326L30.4354 28.0424Z" fill="#ED1C24"/>
<path d="M52.176 49.9088C52.176 50.2568 52.0378 50.5905 51.7917 50.8366C51.5456 51.0827 51.2119 51.221 50.8638 51.221C50.5158 51.221 50.1821 51.0827 49.936 50.8366C49.6899 50.5905 49.5516 50.2568 49.5516 49.9088V43.6889C49.5516 43.3409 49.6899 43.0071 49.936 42.761C50.1821 42.515 50.5158 42.3767 50.8638 42.3767C51.2119 42.3767 51.5456 42.515 51.7917 42.761C52.0378 43.0071 52.176 43.3409 52.176 43.6889V49.9088Z" fill="#034EA1"/>
<path d="M46.7013 30.7851C46.8325 31.4309 47.4511 32.0551 48.1231 32.1976C49.2633 32.4138 50.434 32.4138 51.5742 32.1976C52.2481 32.0551 52.8658 31.4309 52.997 30.7851C53.0795 30.3915 53.0907 20.907 53.0786 20.1816C53.087 19.4552 53.0786 9.97169 52.997 9.57803C52.8658 8.93224 52.2472 8.308 51.5742 8.16553C50.4341 7.94808 49.2632 7.94808 48.1231 8.16553C47.4492 8.308 46.8325 8.93224 46.7013 9.57803C46.6188 9.97169 46.6075 19.4552 46.6197 20.1816C46.6113 20.907 46.6188 30.3915 46.7013 30.7851Z" fill="#034EA1"/>
<path d="M26.95 29.1374C26.7359 29.155 26.5214 29.1087 26.3336 29.0044C26.1458 28.9002 25.9931 28.7425 25.8949 28.5515C25.7966 28.3604 25.7572 28.1446 25.7817 27.9311C25.8061 27.7177 25.8933 27.5163 26.0321 27.3524C26.171 27.1885 26.3553 27.0695 26.5619 27.0104C26.7684 26.9512 26.9878 26.9546 27.1924 27.0202C27.3969 27.0857 27.5775 27.2104 27.7112 27.3786C27.8449 27.5467 27.9257 27.7507 27.9435 27.9648C27.9553 28.1071 27.939 28.2502 27.8955 28.3861C27.8519 28.5221 27.782 28.6481 27.6897 28.757C27.5975 28.8659 27.4846 28.9555 27.3577 29.0208C27.2308 29.086 27.0922 29.1257 26.95 29.1374Z" fill="#034EA1"/>
<path d="M32.8772 22.2763C33.199 22.3494 33.5363 22.3033 33.8267 22.1467C34.1171 21.99 34.3409 21.7334 34.4565 21.4243C34.4565 21.4243 35.003 20.1028 35.9637 20.1581C37.1172 20.406 38.3177 20.3166 39.4218 19.9007C40.5259 19.4847 41.487 18.7597 42.1901 17.8123C42.8933 16.8649 43.3089 15.7351 43.3873 14.5578C43.4657 13.3805 43.2036 12.2056 42.6322 11.1733C42.0609 10.141 41.2044 9.29501 40.1652 8.73632C39.126 8.17764 37.9479 7.92991 36.7717 8.0227C35.5955 8.1155 34.4709 8.5449 33.5321 9.25963C32.5934 9.97436 31.8802 10.9442 31.4778 12.0533L28.7681 19.3529C28.6612 19.64 28.658 19.9554 28.7592 20.2445C28.8603 20.5336 29.0595 20.7783 29.3221 20.936L32.8772 22.2763ZM37.5224 17.3968C36.8801 17.4498 36.2365 17.3112 35.6729 16.9985C35.1094 16.6858 34.6512 16.213 34.3564 15.6399C34.0615 15.0668 33.9432 14.4192 34.0164 13.7788C34.0896 13.1385 34.351 12.5343 34.7675 12.0425C35.1841 11.5507 35.7371 11.1935 36.3567 11.016C36.9762 10.8385 37.6345 10.8487 38.2483 11.0452C38.8621 11.2418 39.4038 11.616 39.8049 12.1204C40.2061 12.6248 40.4487 13.2369 40.502 13.8792C40.5726 14.7406 40.2984 15.5948 39.7398 16.2543C39.1812 16.9138 38.3837 17.3247 37.5224 17.3968Z" fill="#034EA1"/>
<path d="M24.0863 20.9363C24.348 20.7778 24.5462 20.5329 24.6465 20.2438C24.7468 19.9547 24.7429 19.6397 24.6355 19.3532L21.9277 12.0536C21.5256 10.9437 20.8124 9.97305 19.8734 9.25762C18.9344 8.5422 17.8093 8.11225 16.6325 8.01915C15.4557 7.92605 14.277 8.17375 13.2371 8.73263C12.1973 9.29152 11.3404 10.138 10.7688 11.1708C10.1972 12.2037 9.93503 13.3793 10.0137 14.5572C10.0923 15.735 10.5084 16.8653 11.2122 17.8131C11.916 18.7608 12.8779 19.4858 13.9827 19.9015C15.0876 20.3173 16.2888 20.4061 17.4428 20.1574C18.4026 20.1021 18.949 21.4237 18.949 21.4237C19.065 21.7327 19.2889 21.9892 19.5795 22.1458C19.87 22.3025 20.2074 22.3486 20.5293 22.2757L24.0863 20.9363ZM19.3998 14.4184C19.3466 15.061 19.1041 15.6734 18.7028 16.1781C18.3015 16.6828 17.7596 17.0572 17.1456 17.2539C16.5315 17.4506 15.8729 17.4608 15.2531 17.2832C14.6332 17.1056 14.08 16.7481 13.6633 16.256C13.2466 15.764 12.9852 15.1594 12.9122 14.5187C12.8391 13.8781 12.9577 13.2302 13.2529 12.6569C13.5481 12.0837 14.0067 11.6109 14.5706 11.2983C15.1346 10.9856 15.7786 10.8473 16.4211 10.9007C17.2823 10.9731 18.0797 11.384 18.6383 12.0435C19.1968 12.7029 19.4711 13.557 19.4008 14.4184H19.3998Z" fill="#034EA1"/>
</svg>
