<svg width="64" height="64" viewBox="0 0 64 64" fill="none" xmlns="http://www.w3.org/2000/svg">
<path d="M39.0404 10H25.5849C22.4419 10 20.1184 12.9694 20.8299 16.0758L22.3248 22.6064C22.6389 23.9751 22.7965 25.3769 22.7965 26.7822V35.0825C22.7965 36.738 23.3166 38.35 24.2802 39.6845L26.3481 42.5476C27.9421 44.7537 28.801 47.4192 28.801 50.1543V51C28.801 52.6569 30.1442 54 31.801 54H32.8232C34.48 54 35.8232 52.6569 35.8232 51V50.1543C35.8232 47.4181 36.6821 44.7537 38.2761 42.5476L40.344 39.6845C41.3076 38.35 41.8277 36.7368 41.8277 35.0825V26.7822C41.8277 25.3769 41.9864 23.9751 42.2994 22.6064L43.7943 16.0758C44.5058 12.9694 42.1823 10 39.0393 10H39.0404Z" fill="#034EA1"/>
<path d="M62.858 14.5663L61.4717 15.9529L59.7334 14.2079C58.1661 12.6407 55.6247 12.6407 54.0575 14.2079L50.9296 17.2987C49.7355 18.4828 48.1227 19.147 46.4411 19.147H36.3787C35.4301 17.863 33.8906 17.0432 32.1612 17.0899C30.5595 17.1343 29.1599 17.9396 28.2658 19.147H18.1669C16.4852 19.147 14.8713 18.4817 13.6772 17.2976L10.593 14.2501C9.02577 12.6829 6.48771 12.6862 4.92044 14.2535L3.17878 15.9951L3.17545 15.9918C1.60818 17.5591 1.60818 20.1005 3.17545 21.6677L8.08124 26.5713C7.25484 27.3766 6.76721 28.5295 6.86052 29.7958C7.00714 31.8051 8.64994 33.4301 10.6615 33.5557C13.0307 33.7045 14.9979 31.8262 14.9979 29.4892C14.9979 28.283 14.4736 27.2 13.6406 26.4535L6.92424 19.7395C6.44772 19.2629 6.39885 18.4788 6.86092 17.9878C7.33965 17.4802 8.1394 17.4702 8.62924 17.9611L13.6739 23.0036C14.869 24.1987 16.4907 24.8707 18.1813 24.8707H19.5997H25.2545C26.3497 24.8707 27.2372 25.7582 27.2372 26.8534V29.1504C27.2372 30.9221 28.1469 32.4804 29.5232 33.3857C30.4517 33.9955 31.0371 35.0074 31.0371 36.1182V37.9642C31.0371 38.6584 31.5714 39.2627 32.2645 39.2838C32.982 39.3049 33.5707 38.7306 33.5707 38.0175V36.1159C33.5707 35.0063 34.1561 33.9955 35.0836 33.3846C36.4598 32.4793 37.3673 30.921 37.3673 29.1504V26.8534C37.3673 25.7582 38.2548 24.8707 39.35 24.8707H46.4299C48.1172 24.8674 49.7344 24.1965 50.9285 23.0047L56.0202 17.9201C56.5011 17.4391 57.2809 17.4391 57.7618 17.9201C58.2428 18.401 58.2428 19.1808 57.7618 19.6617L50.9663 26.4569C50.0821 27.2511 49.5478 28.4251 49.62 29.7225C49.7344 31.7618 51.3894 33.4268 53.4277 33.5534C55.7958 33.7 57.7618 31.824 57.7618 29.487C57.7618 28.3429 57.2886 27.3088 56.5289 26.5691L61.474 21.6244C63.0412 20.0571 63.0412 17.5157 61.474 15.9485L62.858 14.5663Z" fill="#ED1C24"/>
</svg>
