<svg width="64" height="64" viewBox="0 0 64 64" fill="none" xmlns="http://www.w3.org/2000/svg">
<path d="M27.5229 39.1055C27.5229 43.244 24.2328 46.3417 20.1884 46.5967C7.51906 47.394 0.488253 12.561 20.7296 10.0639C25.1501 9.51849 29.9661 12.4475 29.9661 19.488C29.968 21.4392 29.3767 23.3428 28.2737 24.936C27.1708 26.5293 25.6107 27.7335 23.8088 28.3823C23.926 28.9361 23.9892 29.5127 23.9892 30.0988C23.9892 30.9325 23.8638 31.735 23.6284 32.4886C24.8049 33.1262 25.7892 34.079 26.4753 35.2448C27.1615 36.4106 27.5237 37.7453 27.5229 39.1055Z" fill="#034EA1"/>
<path d="M28.6125 47.5918C28.2676 48.7532 28.0221 49.9315 28.0688 51.1077C28.1145 52.2775 28.4435 53.4716 29.1791 54.3643L28.8193 54.7458C27.869 53.8362 27.3482 52.522 27.1573 51.2046C26.9655 49.8735 27.1106 48.5256 27.3412 47.2503C27.5698 45.9751 27.8849 44.7652 28.1066 43.5553C28.3292 42.3538 28.4893 41.1524 28.528 39.9741C28.6125 37.6439 28.0986 35.3295 26.9038 33.6885C26.3487 32.9089 25.6052 32.303 24.7518 31.9348C24.3392 31.7551 23.9025 31.6456 23.4576 31.6102C23.597 31.0041 23.6664 30.3823 23.6644 29.7585C23.6644 29.1651 23.6028 28.5813 23.4885 28.0206C23.5879 27.989 23.6793 27.9468 23.7797 27.8983C24.6524 28.0532 25.4794 28.3694 26.207 28.792C27.4909 29.5466 28.5639 30.6475 29.3173 31.9833C30.7725 34.5738 30.9872 37.5374 30.6264 40.1775C30.2745 42.8334 29.3322 45.2774 28.6125 47.5918Z" fill="#ED1C24"/>
<path opacity="0.5" d="M23.4576 28.1852C22.527 28.376 21.5342 28.2485 20.6392 27.9185C19.7484 27.5766 18.9268 27.0212 18.3743 26.2712C19.1429 26.8048 19.9298 27.2475 20.7819 27.5627C21.629 27.8888 22.5189 28.0766 23.4576 28.1852ZM23.2752 32.0903C22.2722 31.7969 21.2406 31.7603 20.2825 32.0241C19.3223 32.284 18.462 32.8364 17.7627 33.5933C18.2051 32.6615 19.1306 31.9451 20.1754 31.6585C21.2223 31.3759 22.3976 31.5202 23.2752 32.0903Z" fill="#ED1C24"/>
<path d="M36.4771 39.1055C36.4771 43.244 39.7672 46.3417 43.8116 46.5967C56.4809 47.394 63.5118 12.561 43.2704 10.0639C38.8499 9.51849 34.0339 12.4475 34.0339 19.488C34.032 21.4392 34.6233 23.3428 35.7263 24.936C36.8292 26.5293 38.3894 27.7335 40.1912 28.3823C40.0713 28.9463 40.0109 29.5217 40.0108 30.0988C40.0108 30.9325 40.1362 31.735 40.3716 32.4886C39.1951 33.1262 38.2108 34.079 37.5247 35.2448C36.8385 36.4106 36.4763 37.7453 36.4771 39.1055Z" fill="#034EA1"/>
<path d="M35.3875 47.5918C35.7324 48.7532 35.9779 49.9315 35.9312 51.1077C35.8855 52.2775 35.5565 53.4716 34.8209 54.3643L35.1807 54.7458C36.131 53.8362 36.6519 52.522 36.8427 51.2046C37.0345 49.8735 36.8894 48.5256 36.6588 47.2503C36.4302 45.9751 36.1151 44.7652 35.8934 43.5553C35.6708 42.3538 35.5107 41.1524 35.472 39.9741C35.3875 37.6439 35.9014 35.3295 37.0962 33.6885C37.6513 32.9089 38.3948 32.303 39.2482 31.9348C39.6608 31.7551 40.0976 31.6456 40.5424 31.6102C40.403 31.0041 40.3336 30.3823 40.3356 29.7585C40.3356 29.1651 40.3972 28.5813 40.5116 28.0206C40.4122 27.989 40.3207 27.9468 40.2203 27.8983C39.3699 28.0507 38.5494 28.3528 37.793 28.792C36.5091 29.5466 35.4361 30.6475 34.6827 31.9833C33.2275 34.5738 33.0128 37.5374 33.3736 40.1775C33.7255 42.8334 34.6678 45.2774 35.3875 47.5918Z" fill="#ED1C24"/>
<path opacity="0.5" d="M40.5424 28.1852C41.473 28.376 42.4658 28.2485 43.3608 27.9185C44.2516 27.5766 45.0732 27.0212 45.6257 26.2712C44.8571 26.8048 44.0702 27.2475 43.2181 27.5627C42.371 27.8888 41.4811 28.0766 40.5424 28.1852ZM40.7248 32.0903C41.7278 31.7969 42.7594 31.7603 43.7175 32.0241C44.6777 32.284 45.538 32.8364 46.2373 33.5933C45.7949 32.6615 44.8694 31.9451 43.8246 31.6585C42.7777 31.3759 41.6024 31.5202 40.7248 32.0903Z" fill="#ED1C24"/>
</svg>
