<svg width="64" height="64" viewBox="0 0 64 64" fill="none" xmlns="http://www.w3.org/2000/svg">
<path d="M55.5557 18.3504C48.8155 25.6947 49.0272 25.1597 48.2285 26.453C45.1426 31.1959 39.4669 30.8757 37.7068 33.2219C34.7527 37.2228 30.9922 39.1845 27.8907 39.3473V39.2698C27.8829 37.2538 25.0529 35.6333 23.0369 35.6411C21.0132 35.6411 19.3927 37.2848 19.3927 39.3008C19.396 40.1639 19.7057 40.9979 20.2667 41.6539C20.8276 42.31 21.6032 42.7455 22.4554 42.883C20.4549 44.9997 18.3615 47.5894 16.1672 50.6754C14.1822 52.2029 12.4997 52.1719 11.1971 50.1249C8.14214 41.3571 8.16773 36.6607 8.04134 36.2846C7.67847 26.8507 9.57579 17.9503 18.8732 14.8302C29.4585 11.2915 36.9051 14.4371 39.9399 13.737C40.4129 13.6362 40.8781 13.5431 41.3355 13.4578C41.4131 13.4423 41.4906 13.4268 41.5604 13.4191C46.6166 12.484 51.1571 13.0291 55.3386 15.9158C56.1295 16.474 56.2226 17.6293 55.5557 18.3504Z" fill="#034EA1"/>
<path d="M47.4842 13.6335C43.6865 17.8298 43.7888 17.4142 42.8785 18.8362C40.609 22.337 36.7919 22.9456 35.1016 23.8296C34.4968 24.0777 33.8688 24.2638 33.3338 24.4111C29.581 25.4578 9.84023 35.4833 10.3597 43.3533C10.2202 43.5393 9.7937 43.7952 9.35175 44.0046C9.41843 44.2914 9.6743 45.242 9.77044 45.5708C10.7939 45.1288 12.05 44.369 11.957 43.3067C11.4142 37.1116 29.1546 27.2334 33.7602 25.9463C35.7343 25.3935 35.4443 25.3446 39.5755 23.6977C41.272 23.0131 43.2647 21.1848 44.2199 19.6969C45.0581 18.3942 49.5699 13.8467 49.8026 13.4397C49.3366 13.3427 49.0373 13.2636 48.2131 13.1605" fill="#ED1C24"/>
<path d="M42.739 34.3825L40.2423 35.2586C40.1338 35.3207 40.033 35.4137 39.971 35.5223C39.9477 35.5533 39.9322 35.5843 39.9089 35.6153L38.3815 37.5149L38.397 42.485C38.428 42.5936 38.428 42.7021 38.397 42.8107L38.4202 48.4709C38.4202 48.8973 38.0791 49.2462 37.6449 49.2462C37.2184 49.2462 36.8695 48.9051 36.8695 48.4786L36.8462 42.9503C34.8923 41.0816 32.4732 41.2987 32.4422 41.2987C30.2867 41.5934 28.0381 40.566 26.8518 39.7596C26.7672 39.7027 26.6946 39.6296 26.6383 39.5446C26.582 39.4596 26.543 39.3643 26.5235 39.2642C26.5041 39.1641 26.5046 39.0611 26.525 38.9612C26.5454 38.8613 26.5853 38.7663 26.6424 38.6819C26.8828 38.333 27.3635 38.2322 27.7202 38.4725C29.1624 39.4495 30.9457 39.9426 32.2638 39.7643C32.3956 39.7488 34.652 39.5472 36.8462 40.9816L36.8307 37.4925L33.6362 32.817C33.0609 31.9812 34.3356 31.0879 34.9156 31.9486L37.6526 35.9495L38.6606 34.6856C38.8932 34.3212 39.2189 34.0266 39.6143 33.8405C39.6376 33.8327 39.6608 33.8172 39.6841 33.8095L42.2273 32.9256C42.323 32.8919 42.4244 32.8775 42.5257 32.8831C42.627 32.8886 42.7262 32.9141 42.8176 32.958C42.9091 33.002 42.991 33.0635 43.0586 33.139C43.1263 33.2146 43.1784 33.3028 43.212 33.3985C43.2465 33.4942 43.2616 33.5957 43.2564 33.6973C43.2512 33.7988 43.2259 33.8984 43.1819 33.99C43.1378 34.0817 43.076 34.1636 43 34.2312C42.9239 34.2987 42.8352 34.3496 42.739 34.3825Z" fill="#ED1C24"/>
<path d="M27.8891 39.2697C27.8969 41.2857 25.0761 42.9294 23.0601 42.9372C21.0442 42.9449 19.4051 41.3159 19.3973 39.3007C19.3903 37.2848 21.0178 35.6449 23.0338 35.6371C25.0497 35.6294 27.8821 37.2538 27.8891 39.2697Z" fill="#ED1C24"/>
<path d="M34.0214 25.0962C34.0292 21.3589 35.7815 16.9859 38.3712 13.8689C40.5795 13.9658 43.8608 12.3476 49.1333 13.3029C44.1965 18.7204 44.5811 18.0388 43.7212 19.343C41.2773 23.1384 37.4989 23.5509 35.3551 24.6775" fill="#ED1C24"/>
</svg>
