<svg width="64" height="64" viewBox="0 0 64 64" fill="none" xmlns="http://www.w3.org/2000/svg">
<path d="M26.9428 39.2222C26.9428 43.6618 23.4134 46.9847 19.0748 47.2583C5.48409 48.1136 -2.05806 10.7472 19.6554 8.06856C24.3974 7.48347 29.5636 10.6255 29.5636 18.1781C29.5657 20.2711 28.9314 22.3132 27.7482 24.0223C26.565 25.7314 24.8914 27.0232 22.9585 27.7192C23.0843 28.3133 23.152 28.9318 23.152 29.5605C23.152 30.4549 23.0176 31.3157 22.765 32.1241C24.0271 32.8081 25.0829 33.8302 25.819 35.0808C26.5551 36.3314 26.9436 37.7631 26.9428 39.2222Z" fill="#034EA1"/>
<path d="M28.1116 48.3256C27.7416 49.5714 27.4783 50.8354 27.5284 52.0971C27.5774 53.352 27.9304 54.633 28.7194 55.5906L28.3334 55.9998C27.314 55.0242 26.7553 53.6143 26.5506 52.2011C26.3448 50.7732 26.5005 49.3272 26.7478 47.9593C26.9931 46.5913 27.3311 45.2934 27.5689 43.9955C27.8077 42.7067 27.9794 41.4178 28.021 40.1538C28.1116 37.6542 27.5604 35.1714 26.2787 33.4112C25.6832 32.5749 24.8856 31.9248 23.9702 31.5299C23.5275 31.3371 23.059 31.2196 22.5818 31.1817C22.7313 30.5315 22.8058 29.8645 22.8036 29.1953C22.8036 28.5588 22.7375 27.9324 22.6149 27.331C22.7215 27.2971 22.8196 27.2518 22.9273 27.1998C23.8635 27.366 24.7507 27.7052 25.5312 28.1585C26.9085 28.9679 28.0595 30.1489 28.8676 31.5819C30.4287 34.3608 30.659 37.54 30.2719 40.372C29.8945 43.2211 28.8836 45.8428 28.1116 48.3256Z" fill="#ED1C24"/>
<path opacity="0.5" d="M22.5818 27.5078C21.5835 27.7124 20.5185 27.5756 19.5584 27.2216C18.6028 26.8548 17.7214 26.2591 17.1288 25.4546C17.9532 26.027 18.7974 26.5019 19.7115 26.84C20.6202 27.1898 21.5747 27.3912 22.5818 27.5078ZM22.3861 31.6969C21.3101 31.3821 20.2036 31.3428 19.1757 31.6259C18.1457 31.9046 17.2228 32.4972 16.4727 33.3091C16.9473 32.3096 17.9401 31.5411 19.0609 31.2337C20.1839 30.9305 21.4446 31.0853 22.3861 31.6969Z" fill="#ED1C24"/>
<path d="M36.5481 39.2222C36.5481 43.6618 40.0776 46.9847 44.4161 47.2583C58.0069 48.1136 65.549 10.7472 43.8355 8.06856C39.0935 7.48347 33.9273 10.6255 33.9273 18.1781C33.9252 20.2711 34.5596 22.3132 35.7427 24.0223C36.9259 25.7314 38.5995 27.0232 40.5324 27.7192C40.4038 28.3242 40.339 28.9414 40.3389 29.5605C40.3389 30.4549 40.4734 31.3157 40.726 32.1242C39.4638 32.8081 38.408 33.8302 37.6719 35.0808C36.9359 36.3314 36.5474 37.7631 36.5481 39.2222Z" fill="#034EA1"/>
<path d="M35.3793 48.3256C35.7493 49.5714 36.0127 50.8354 35.9626 52.0971C35.9135 53.352 35.5606 54.633 34.7715 55.5906L35.1575 55.9998C36.1769 55.0242 36.7356 53.6143 36.9403 52.2011C37.1461 50.7732 36.9905 49.3272 36.7431 47.9593C36.4978 46.5913 36.1598 45.2934 35.922 43.9955C35.6832 42.7067 35.5115 41.4178 35.4699 40.1538C35.3793 37.6542 35.9306 35.1714 37.2123 33.4112C37.8077 32.5749 38.6054 31.9248 39.5208 31.5299C39.9634 31.3371 40.4319 31.2196 40.9091 31.1817C40.7596 30.5315 40.6851 29.8645 40.6873 29.1953C40.6873 28.5588 40.7534 27.9324 40.876 27.331C40.7694 27.2971 40.6713 27.2518 40.5636 27.1998C39.6513 27.3633 38.7712 27.6873 37.9597 28.1585C36.5825 28.9679 35.4314 30.1489 34.6233 31.5819C33.0623 34.3608 32.8319 37.54 33.219 40.372C33.5965 43.2211 34.6073 45.8428 35.3793 48.3256Z" fill="#ED1C24"/>
<path opacity="0.5" d="M40.9091 27.5078C41.9074 27.7124 42.9724 27.5756 43.9325 27.2216C44.8881 26.8548 45.7695 26.2591 46.3621 25.4546C45.5377 26.027 44.6935 26.5019 43.7794 26.84C42.8707 27.1898 41.9162 27.3912 40.9091 27.5078ZM41.1048 31.6969C42.1808 31.3821 43.2873 31.3428 44.3152 31.6259C45.3452 31.9046 46.2681 32.4972 47.0182 33.3091C46.5436 32.3096 45.5508 31.5411 44.43 31.2337C43.307 30.9305 42.0463 31.0853 41.1048 31.6969Z" fill="#ED1C24"/>
</svg>
