<svg width="64" height="64" viewBox="0 0 64 64" fill="none" xmlns="http://www.w3.org/2000/svg">
<path d="M51.8183 47.6746L57.931 41.553C63.6462 35.8295 63.6462 26.5496 57.931 20.8247L49.4109 12.2923C46.666 9.54346 42.9442 8 39.0618 8H18.24C16.8147 8 15.6594 9.15696 15.6594 10.5843C15.6594 11.5295 14.8939 12.2962 13.9501 12.2962H12.2089C9.70599 12.2962 7.67693 14.3282 7.67693 16.8347V18.7889C7.67693 19.4943 7.1063 20.0658 6.40192 20.0658H5.53196C3.02906 20.0658 1 22.0978 1 24.6043V31.8356C1 35.4774 3.94743 38.4291 7.58395 38.4291C10.4409 38.4291 12.7566 40.7481 12.7566 43.6093C12.7566 45.0571 13.9284 46.2306 15.3741 46.2306H25.6697C27.1154 46.2306 28.2873 45.0571 28.2873 43.6093L39.6541 54.9926C40.9954 56.3358 43.1709 56.3358 44.5121 54.9926C45.8534 53.6494 45.8534 51.4707 44.5121 50.1275L42.6347 48.2473C42.3111 47.9233 42.3111 47.399 42.6347 47.075C42.9582 46.751 43.4817 46.751 43.8052 47.075L44.4064 47.6771C46.4533 49.727 49.7714 49.727 51.817 47.6771L51.8183 47.6746Z" fill="#034EA1"/>
<path d="M38.0129 21.1186L27.4972 30.251M27.4972 30.251L38.61 33.7378L43.4568 31.0812L48.3036 28.4246L38.0129 21.1186L23.9985 18.4335L14.9123 30.251H27.4972ZM27.4972 30.251L23.9985 18.4335" stroke="white" stroke-width="2" stroke-miterlimit="10"/>
<path d="M14.9455 34.4144C17.2687 34.4144 19.152 32.5566 19.152 30.2649C19.152 27.9733 17.2687 26.1155 14.9455 26.1155C12.6223 26.1155 10.7389 27.9733 10.7389 30.2649C10.7389 32.5566 12.6223 34.4144 14.9455 34.4144Z" fill="#ED1C24"/>
<path d="M24.0139 22.559C26.3371 22.559 28.2204 20.7012 28.2204 18.4096C28.2204 16.1179 26.3371 14.2601 24.0139 14.2601C21.6907 14.2601 19.8073 16.1179 19.8073 18.4096C19.8073 20.7012 21.6907 22.559 24.0139 22.559Z" fill="#ED1C24"/>
<path d="M38.0009 25.2528C40.3241 25.2528 42.2074 23.395 42.2074 21.1033C42.2074 18.8117 40.3241 16.9539 38.0009 16.9539C35.6777 16.9539 33.7943 18.8117 33.7943 21.1033C33.7943 23.395 35.6777 25.2528 38.0009 25.2528Z" fill="#ED1C24"/>
<path d="M48.2715 32.582C50.5947 32.582 52.4781 30.7243 52.4781 28.4326C52.4781 26.1409 50.5947 24.2832 48.2715 24.2832C45.9483 24.2832 44.065 26.1409 44.065 28.4326C44.065 30.7243 45.9483 32.582 48.2715 32.582Z" fill="#ED1C24"/>
<path d="M38.5968 37.9123C40.9201 37.9123 42.8034 36.0545 42.8034 33.7629C42.8034 31.4712 40.9201 29.6134 38.5968 29.6134C36.2736 29.6134 34.3903 31.4712 34.3903 33.7629C34.3903 36.0545 36.2736 37.9123 38.5968 37.9123Z" fill="#ED1C24"/>
<path d="M27.5058 34.4144C29.829 34.4144 31.7123 32.5566 31.7123 30.2649C31.7123 27.9733 29.829 26.1155 27.5058 26.1155C25.1826 26.1155 23.2992 27.9733 23.2992 30.2649C23.2992 32.5566 25.1826 34.4144 27.5058 34.4144Z" fill="#ED1C24"/>
</svg>
