<svg width="64" height="64" viewBox="0 0 64 64" fill="none" xmlns="http://www.w3.org/2000/svg">
<path d="M49.9422 16.6106L49.9846 31.4845C49.9925 34.2515 47.7516 36.4987 44.9846 36.4987H33.3097C35.6174 41.6601 35.9598 47.5309 34.2664 52.9416C33.6972 54.7613 32.0117 56 30.1051 56H19C16.2386 56 14 53.7614 14 51V25.4916C14 21.4916 16.5588 17.9744 20.2758 16.8654L43.5257 9.93097C46.7455 8.97065 49.9772 11.396 49.9547 14.7559L49.9422 16.6106Z" fill="#034EA1"/>
<path d="M24.2201 40.1345C28.3253 40.1345 31.6531 36.693 31.6531 32.4476C31.6531 28.2023 28.3253 24.7607 24.2201 24.7607C20.115 24.7607 16.7872 28.2023 16.7872 32.4476C16.7872 36.693 20.115 40.1345 24.2201 40.1345Z" fill="white"/>
<path d="M24.3577 35.3452C23.7153 34.825 22.9061 34.5149 22.0268 34.5149C19.9369 34.5149 18.2426 36.267 18.2426 38.4284C18.2426 39.1369 18.4247 39.8015 18.7431 40.3747C19.6505 42.0085 21.2138 43.578 21.2138 45.4469V56H27.3068V45.6676C27.3068 43.717 29.01 42.0905 29.9643 40.3892C30.2877 39.8127 30.4729 39.1429 30.4729 38.4284C30.4729 36.267 28.7786 34.5149 26.6887 34.5149C25.8094 34.5149 25.0002 34.825 24.3577 35.3452Z" fill="#ED1C24"/>
<path d="M49.9987 24.362L31.3233 28.8331C29.5237 29.2639 28.396 31.1094 27.0758 32.4059C26.3973 33.0723 25.48 33.4812 24.4704 33.4812C22.3804 33.4812 20.6862 31.7291 20.6862 29.5677C20.6862 28.9736 20.8142 28.4103 21.0433 27.9059C20.1899 27.1884 19.6447 26.094 19.6447 24.8679C19.6447 22.7065 21.339 20.9544 23.4289 20.9544C23.7935 20.9544 24.146 21.0077 24.4796 21.1072C26.3839 21.6752 28.3655 23.0422 30.2987 22.5823L49.9987 17.8958V24.362Z" fill="#ED1C24"/>
</svg>
