<svg width="64" height="64" viewBox="0 0 64 64" fill="none" xmlns="http://www.w3.org/2000/svg">
<path fill-rule="evenodd" clip-rule="evenodd" d="M28.0063 56C26.0931 56 24.5457 54.4807 24.5457 52.5675V39.175C24.5457 38.8655 24.7989 38.6123 25.1084 38.6123H30.8762C31.1856 38.6123 31.4389 38.8655 31.4389 39.175V52.5675C31.4389 54.4807 29.8914 56 28.0063 56ZM35.9687 56C34.0555 56 32.5361 54.4807 32.5361 52.5675V39.175C32.5361 38.8655 32.7894 38.6123 33.0989 38.6123H38.8385C39.148 38.6123 39.4012 38.8655 39.4012 39.175V52.5675C39.4012 54.4807 37.8537 56 35.9687 56Z" fill="#034EA1"/>
<path fill-rule="evenodd" clip-rule="evenodd" d="M38.8383 39.7366H25.1083C24.7988 39.7366 24.5455 39.4834 24.5455 39.1739V29.7767L16.5832 22.8272L16.5551 22.7991C15.1483 21.3642 15.1483 19.0571 16.5551 17.6222H16.5832C17.2585 16.9469 18.1869 16.5812 19.1435 16.5812C20.1283 16.5812 21.0286 16.9469 21.732 17.6222L27.8093 23.6994H36.1655L42.2427 17.6222C42.918 16.9469 43.8465 16.5812 44.8312 16.5812C45.7878 16.5812 46.7163 16.9469 47.3915 17.6222C47.3915 17.6222 47.3915 17.6222 47.4197 17.6222C48.8264 19.0571 48.8264 21.3642 47.4197 22.7991C47.3915 22.7991 47.3915 22.8272 47.3634 22.8272L39.4011 29.7767V39.1739C39.4011 39.4834 39.1478 39.7366 38.8383 39.7366Z" fill="#034EA1"/>
<path fill-rule="evenodd" clip-rule="evenodd" d="M31.9733 21.9833C28.1188 21.9833 24.9958 18.8603 24.9958 15.0057C24.9958 11.1512 28.1188 8 31.9733 8C35.8279 8 38.9791 11.1512 38.9791 15.0057C38.9791 18.8603 35.8279 21.9833 31.9733 21.9833Z" fill="#ED1C24"/>
<path fill-rule="evenodd" clip-rule="evenodd" d="M31.9735 28.9881C31.0732 28.9881 30.3416 28.2566 30.3416 27.3563C30.3416 26.4278 31.0732 25.6963 31.9735 25.6963C32.902 25.6963 33.6335 26.4278 33.6335 27.3563C33.6335 28.2566 32.902 28.9881 31.9735 28.9881ZM31.9735 33.3773C31.0732 33.3773 30.3416 32.6176 30.3416 31.7173C30.3416 30.8169 31.0732 30.0573 31.9735 30.0573C32.902 30.0573 33.6335 30.8169 33.6335 31.7173C33.6335 32.6176 32.902 33.3773 31.9735 33.3773ZM31.9735 37.7383C31.0732 37.7383 30.3416 37.0067 30.3416 36.1064C30.3416 35.1779 31.0732 34.4464 31.9735 34.4464C32.902 34.4464 33.6335 35.1779 33.6335 36.1064C33.6335 37.0067 32.902 37.7383 31.9735 37.7383Z" fill="#ED1C24"/>
</svg>
