<svg width="64" height="64" viewBox="0 0 64 64" fill="none" xmlns="http://www.w3.org/2000/svg">
<path d="M26.2147 13.7142C28.0686 13.7142 29.5715 15.2171 29.5715 17.071V41.9023C29.5715 44.4738 28.7454 46.9774 27.215 49.0439L24.6682 52.4829C23.0298 54.6952 20.4399 56 17.687 56C12.8893 56 9 52.1107 9 47.313V43.8843C9 37.1436 11.2701 30.5993 15.4444 25.3065L23.579 14.9923C24.2155 14.1852 25.1868 13.7142 26.2147 13.7142Z" fill="#034EA1"/>
<path d="M38.64 13.7142C36.7876 13.7142 35.2859 15.2159 35.2859 17.0684V41.9023C35.2859 44.4738 36.112 46.9774 37.6424 49.0439L40.1892 52.4829C41.8275 54.6952 44.4174 56 47.1703 56C51.968 56 55.8574 52.1107 55.8574 47.313V43.9295C55.8574 37.2082 53.6003 30.6816 49.448 25.3963L41.2776 14.9963C40.6417 14.1869 39.6694 13.7142 38.64 13.7142Z" fill="#034EA1"/>
<path d="M23.1117 32.449L32.4207 21.1428" stroke="#ED1C24" stroke-width="2" stroke-miterlimit="10"/>
<path d="M41.5134 32.449L32.4197 21.1428" stroke="#ED1C24" stroke-width="2" stroke-miterlimit="10"/>
<path d="M41.0717 31.5419V36.7626C41.0717 38.4929 41.6327 40.1766 42.6705 41.5611L46.7993 47.0689" stroke="#ED1C24" stroke-width="2" stroke-linecap="round" stroke-linejoin="round"/>
<path d="M40.4286 30.9703H43.3432C44.404 30.9703 45.4214 31.3918 46.1716 32.1419L46.7143 32.6846" stroke="#ED1C24" stroke-width="2" stroke-linecap="round" stroke-linejoin="round"/>
<path d="M41.5715 37.2561H45.3093C46.1996 37.2561 47.0439 37.6516 47.6139 38.3356L49.5715 40.6847" stroke="#ED1C24" stroke-width="2" stroke-linecap="round"/>
<path d="M23.7856 31.5419V36.7626C23.7856 38.4929 23.2246 40.1766 22.1868 41.5611L18.058 47.0689" stroke="#ED1C24" stroke-width="2" stroke-linecap="round" stroke-linejoin="round"/>
<path d="M24.4287 30.9703H21.5141C20.4533 30.9703 19.4359 31.3918 18.6857 32.1419L18.143 32.6846" stroke="#ED1C24" stroke-width="2" stroke-linecap="round" stroke-linejoin="round"/>
<path d="M32.4274 21.1429L32.4286 8" stroke="#ED1C24" stroke-width="3" stroke-linecap="round" stroke-linejoin="round"/>
<path d="M23.2858 37.2561H19.548C18.6577 37.2561 17.8134 37.6516 17.2434 38.3356L15.2858 40.6847" stroke="#ED1C24" stroke-width="2" stroke-linecap="round"/>
</svg>
