<svg width="64" height="64" viewBox="0 0 64 64" fill="none" xmlns="http://www.w3.org/2000/svg">
<path d="M35.645 20.3116L34.5407 19.7926V10.447C34.5407 9.09763 33.443 8 32.0938 8C30.7446 8 29.647 9.09772 29.647 10.447V19.7926L28.3985 20.3794C28.1013 20.519 27.9403 20.8455 28.0104 21.1663C28.0488 21.3427 28.0683 21.5221 28.0683 21.6999V24.6303C28.0683 24.8609 28.1814 25.077 28.3709 25.2085C28.4904 25.2913 28.6306 25.334 28.7722 25.334C28.8553 25.334 28.9385 25.3194 29.0185 25.2895C30.9444 24.5698 33.0751 24.5512 35.0182 25.2372C35.2336 25.3133 35.4725 25.28 35.6589 25.1481C35.8453 25.0162 35.9563 24.802 35.9563 24.5736V21.7154C35.9563 21.5143 35.9807 21.3129 36.0291 21.1171C36.1092 20.7913 35.9485 20.4543 35.645 20.3116Z" fill="#ED1C24"/>
<path d="M28.0255 18.6719C27.1079 17.9333 25.923 17.6538 24.7747 17.9049C11.6095 20.7847 8.7051 42.7693 8.0676 52.0878C7.96401 53.6023 8.74813 54.956 10.1141 55.6207C10.6372 55.8751 11.187 56 11.7299 56C12.6026 56 13.4567 55.6772 14.1509 55.0517C18.0604 51.5287 22.2855 50.0422 25.1414 49.4157C27.6529 48.8647 29.4757 46.5922 29.4757 44.0123V21.6998C29.4757 20.5174 28.9471 19.4137 28.0255 18.6719Z" fill="#034EA1"/>
<path d="M28.0255 18.6719C27.1079 17.9333 25.923 17.6538 24.7747 17.9049C24.4394 17.9783 24.1109 18.0647 23.7887 18.1623C24.081 18.2955 24.3594 18.465 24.6164 18.6717C25.5379 19.4135 26.0666 20.5171 26.0666 21.6997V34.1068V44.0122V49.1232C28.0882 48.2794 29.4757 46.2629 29.4757 44.0122V21.6998C29.4757 20.5174 28.9471 19.4137 28.0255 18.6719Z" fill="#034EA1"/>
<path d="M27.9519 37.8667C27.918 37.9257 25.1055 44.0958 18.5573 45.5374C18.5504 45.5389 18.5436 45.5406 18.5367 45.5423L16.2793 46.111C16.1655 46.1384 14.7473 46.4893 13.0672 47.3332C10.762 48.4909 9.0607 50.0382 8.14682 51.808C8.1021 51.8947 8.07426 51.9895 8.0676 52.0868V52.0869C8.06442 52.1325 8.0647 52.1776 8.0632 52.223C8.06151 52.2717 8.05832 52.3209 8.05851 52.3691C8.0587 52.4148 8.06217 52.4597 8.06395 52.505C8.06582 52.5521 8.0661 52.5999 8.06967 52.6465C8.07323 52.692 8.07998 52.7365 8.08514 52.7815C8.09039 52.8272 8.09395 52.8735 8.10079 52.9187C8.10764 52.9638 8.11776 53.0079 8.1262 53.0524C8.13464 53.0964 8.14139 53.1412 8.15132 53.1847C8.16154 53.2295 8.17504 53.2732 8.18695 53.3173C8.19829 53.3594 8.20804 53.4023 8.22089 53.4439C8.23298 53.483 8.24798 53.5209 8.26139 53.5595C8.27714 53.6049 8.29148 53.6509 8.30901 53.6954C8.3226 53.73 8.33892 53.7634 8.35364 53.7974C8.37389 53.8446 8.39301 53.8924 8.41542 53.9385C8.43445 53.978 8.45639 54.0159 8.47701 54.0547C8.49782 54.0939 8.51714 54.134 8.53945 54.1724C8.56373 54.2143 8.59092 54.2545 8.61698 54.2953C8.63835 54.3289 8.65814 54.3635 8.68073 54.3964C8.70642 54.4339 8.73492 54.4697 8.7622 54.5063C8.78779 54.5407 8.81189 54.5761 8.83879 54.6097C8.86692 54.6448 8.89795 54.6781 8.92748 54.7122C8.95607 54.7452 8.98326 54.7794 9.01317 54.8114C9.04523 54.8458 9.08001 54.8782 9.11348 54.9114C9.14348 54.9411 9.17226 54.9721 9.20339 55.0009C9.24464 55.039 9.28879 55.0749 9.3321 55.1113C9.35798 55.1331 9.38235 55.1561 9.40907 55.1773C9.47779 55.232 9.54904 55.2843 9.62235 55.3344C9.62489 55.3361 9.62714 55.3381 9.62967 55.3398C9.7041 55.3904 9.78089 55.4387 9.85992 55.4846C9.8616 55.4856 9.8631 55.4868 9.86479 55.4877C9.9456 55.5345 10.0287 55.5788 10.1141 55.6203C10.6372 55.8747 11.187 55.9996 11.7299 55.9996C12.6026 55.9996 13.4567 55.6768 14.1509 55.0513C18.0604 51.5284 22.2855 50.0419 25.1414 49.4154C27.6529 48.8643 29.4757 46.5918 29.4757 44.012V38.2689V35.2678C29.1126 35.8581 28.626 36.6938 27.9519 37.8667Z" fill="#ED1C24"/>
<path d="M35.645 20.3116L34.5407 19.7926V10.447C34.5407 9.09763 33.443 8 32.0939 8C32.0557 8 32.0176 8.00112 31.9799 8.00291V24.737C33.0068 24.7243 34.0364 24.8904 35.018 25.2371C35.2335 25.3131 35.4723 25.2798 35.6587 25.1479C35.8452 25.016 35.9561 24.8018 35.9561 24.5734V21.7153C35.9561 21.5141 35.9805 21.3127 36.0289 21.1169C36.1092 20.7913 35.9485 20.4543 35.645 20.3116Z" fill="#ED1C24"/>
<path d="M55.9324 52.0878C55.2947 42.7694 52.3904 20.7848 39.2252 17.9051C38.0773 17.6539 36.8921 17.9333 35.9744 18.672C35.053 19.4137 34.5243 20.5174 34.5243 21.7V44.0124C34.5243 46.5924 36.3471 48.8648 38.8585 49.4158C41.7144 50.0424 45.9395 51.5289 49.8491 55.0517C50.5433 55.6772 51.3974 56 52.2702 56C52.8129 56 53.363 55.8751 53.8859 55.6207C55.2518 54.9561 56.0361 53.6024 55.9324 52.0878Z" fill="#034EA1"/>
<path d="M55.9324 52.0879C55.2947 42.7694 52.3904 20.7848 39.2252 17.9051C38.4208 17.729 37.5986 17.8145 36.8624 18.135C49.2646 21.7938 52.0508 42.9846 52.6737 52.0879C52.7766 53.5927 52.0024 54.938 50.6527 55.6071C51.1594 55.8669 51.7108 56 52.27 56C52.8127 56 53.3628 55.8752 53.8858 55.6207C55.2518 54.9561 56.0361 53.6024 55.9324 52.0879Z" fill="#034EA1"/>
<path d="M36.0481 37.8667C36.082 37.9257 38.8945 44.0958 45.4426 45.5374C45.4495 45.5389 45.4564 45.5406 45.4633 45.5423L47.7207 46.111C47.8344 46.1384 49.2526 46.4893 50.9327 47.3332C53.238 48.4909 54.9392 50.0382 55.8531 51.808C55.8978 51.8947 55.9257 51.9895 55.9323 52.0868V52.0869C55.9354 52.1325 55.9352 52.1776 55.9367 52.223C55.9384 52.2717 55.9416 52.3209 55.9414 52.3691C55.9412 52.4148 55.9378 52.4597 55.936 52.505C55.9341 52.5521 55.9338 52.5999 55.9303 52.6465C55.9267 52.692 55.92 52.7365 55.9148 52.7815C55.9095 52.8272 55.906 52.8735 55.8991 52.9187C55.8923 52.9638 55.8822 53.0079 55.8737 53.0524C55.8653 53.0964 55.8585 53.1412 55.8486 53.1847C55.8384 53.2295 55.8249 53.2732 55.813 53.3173C55.8016 53.3594 55.7919 53.4023 55.779 53.4439C55.767 53.483 55.752 53.5209 55.7385 53.5595C55.7228 53.6049 55.7085 53.6509 55.6909 53.6954C55.6773 53.73 55.661 53.7634 55.6463 53.7974C55.626 53.8446 55.6069 53.8924 55.5845 53.9385C55.5655 53.978 55.5435 54.0159 55.5229 54.0547C55.5021 54.0939 55.4828 54.134 55.4605 54.1724C55.4362 54.2143 55.409 54.2545 55.383 54.2953C55.3616 54.3289 55.3418 54.3635 55.3192 54.3964C55.2935 54.4339 55.265 54.4697 55.2377 54.5063C55.2121 54.5407 55.188 54.5761 55.1611 54.6097C55.133 54.6448 55.102 54.6781 55.0725 54.7122C55.0439 54.7452 55.0167 54.7794 54.9868 54.8114C54.9547 54.8458 54.9199 54.8782 54.8865 54.9114C54.8565 54.9411 54.8277 54.9721 54.7965 55.0009C54.7553 55.039 54.7111 55.0749 54.6678 55.1113C54.642 55.1331 54.6176 55.1561 54.5909 55.1773C54.5221 55.232 54.4509 55.2843 54.3776 55.3344C54.375 55.3361 54.3728 55.3381 54.3703 55.3398C54.2958 55.3904 54.219 55.4387 54.14 55.4846C54.1383 55.4856 54.1368 55.4868 54.1351 55.4877C54.0543 55.5345 53.9713 55.5788 53.8859 55.6203C53.3627 55.8747 52.8129 55.9996 52.2701 55.9996C51.3974 55.9996 50.5432 55.6768 49.849 55.0513C45.9395 51.5284 41.7144 50.0419 38.8585 49.4154C36.347 48.8643 34.5242 46.5918 34.5242 44.012V38.2689V35.2678C34.8875 35.8581 35.3739 36.6938 36.0481 37.8667Z" fill="#ED1C24"/>
</svg>
