<svg width="64" height="64" viewBox="0 0 64 64" fill="none" xmlns="http://www.w3.org/2000/svg">
<path d="M11.4667 27.6H52.5334V49.6C52.5334 50.7669 52.0698 51.8861 51.2447 52.7112C50.4195 53.5364 49.3004 54 48.1334 54H15.8667C14.6998 54 13.5806 53.5364 12.7555 52.7112C11.9303 51.8861 11.4667 50.7669 11.4667 49.6V27.6Z" fill="#034EA1"/>
<path d="M38.8446 37.8054H24.6669V42.2054H38.8446V37.8054Z" fill="#ED1C24"/>
<path d="M29.5554 32.9166V46.6055H33.9554V32.9166H29.5554Z" fill="#ED1C24"/>
<path d="M52.5333 18.8H11.4667C10.6566 18.8 10 19.4567 10 20.2667V26.1334C10 26.9434 10.6566 27.6 11.4667 27.6H52.5333C53.3434 27.6 54 26.9434 54 26.1334V20.2667C54 19.4567 53.3434 18.8 52.5333 18.8Z" fill="#ED1C24"/>
<path d="M45.2001 18.8H42.2668V15.8667C42.2668 15.0887 41.9577 14.3426 41.4076 13.7925C40.8575 13.2424 40.1114 12.9333 39.3334 12.9333H24.6668C23.8888 12.9333 23.1427 13.2424 22.5926 13.7925C22.0425 14.3426 21.7334 15.0887 21.7334 15.8667V18.8H18.8001V15.8667C18.8001 14.3107 19.4182 12.8185 20.5184 11.7183C21.6186 10.6181 23.1108 10 24.6668 10H39.3334C40.8894 10 42.3816 10.6181 43.4818 11.7183C44.582 12.8185 45.2001 14.3107 45.2001 15.8667V18.8Z" fill="#034EA1"/>
</svg>
