<svg width="64" height="64" viewBox="0 0 64 64" fill="none" xmlns="http://www.w3.org/2000/svg">
<path d="M18.8313 20.7229H23.2904C25.0928 20.7229 26.5548 22.1195 26.5548 23.8414V35.4699C26.5548 37.1917 28.0168 38.6506 29.8192 38.6506" stroke="#ED1C24" stroke-width="5" stroke-linecap="round" stroke-linejoin="round"/>
<path d="M46.1314 20.9358H41.6605C39.8533 20.9358 38.3875 22.391 38.3875 24.1851V35.4698C38.3875 37.2639 36.8313 38.6505 35.024 38.6505" stroke="#ED1C24" stroke-width="5" stroke-linecap="round" stroke-linejoin="round"/>
<path d="M47.1408 31.7108C45.5194 31.7108 43.8994 31.103 42.6623 29.886C40.1894 27.4535 40.1894 23.5077 42.6623 21.0752C42.8973 20.844 43.176 20.4467 43.176 19.8555C43.176 19.2643 42.8973 18.867 42.6623 18.6358C40.1894 16.2032 40.188 12.2575 42.6623 9.82492C45.1352 7.39239 49.1465 7.391 51.6194 9.82492C54.3428 12.5039 55.8432 16.0662 55.8432 19.8555C55.8432 23.6448 54.3428 27.2071 51.6194 29.886C50.3822 31.103 48.7622 31.7108 47.1408 31.7108Z" fill="#034EA1"/>
<path d="M17.7027 31.7108C16.0812 31.7108 14.4612 31.103 13.2239 29.886C10.5004 27.207 9 23.6446 9 19.8552C9 16.0658 10.5004 12.5035 13.2239 9.82444C15.6969 7.39185 19.7084 7.39185 22.1814 9.82444C24.6544 12.257 24.6544 16.2029 22.1814 18.6355C21.9477 18.8653 21.6676 19.264 21.6676 19.8552C21.6676 20.4464 21.9463 20.8438 22.1814 21.075C24.6544 23.5076 24.6544 27.4534 22.1814 29.886C20.9442 31.103 19.3241 31.7108 17.7027 31.7108Z" fill="#034EA1"/>
<path d="M39.6505 42.9107C39.6505 38.848 36.2259 35.5759 32.0769 35.767C28.3903 35.9364 25.393 38.8842 25.2027 42.5299C25.0593 45.2663 26.4731 47.6886 28.6435 49.0076C29.7616 49.6866 30.4611 50.8738 30.4611 52.1711V54.007C30.4611 55.0509 31.2719 55.95 32.3257 55.9978C33.4511 56.0499 34.3804 55.1624 34.3804 54.0605V52.1697C34.3804 50.8883 35.0493 49.6938 36.1571 49.0307C38.25 47.7783 39.6491 45.5067 39.6491 42.9092L39.6505 42.9107Z" fill="#034EA1"/>
<path d="M39.6505 42.9107C39.6505 38.848 36.2259 35.5759 32.0769 35.767C28.3903 35.9364 25.393 38.8842 25.2027 42.5299C25.0593 45.2663 26.4731 47.6886 28.6435 49.0076C29.7616 49.6866 30.4611 50.8738 30.4611 52.1711V54.007C30.4611 55.0509 31.2719 55.95 32.3257 55.9978C33.4511 56.0499 34.3804 55.1624 34.3804 54.0605V52.1697C34.3804 50.8883 35.0493 49.6938 36.1571 49.0307C38.25 47.7783 39.6491 45.5067 39.6491 42.9092L39.6505 42.9107Z" fill="#034EA1"/>
</svg>
