<svg width="300" height="132" viewBox="0 0 300 132" fill="none" xmlns="http://www.w3.org/2000/svg">
<path d="M12.31 34.73H31.81V15.28C31.81 11.81 28.99 9 25.51 9C22.03 9 19.21 11.81 19.21 15.28V22.17H12.3C8.82 22.17 6 24.98 6 28.45C6 31.92 8.82 34.73 12.3 34.73H12.31Z" fill="white"/>
<path d="M49.37 43.1191L66.88 71.1891H67V43.1191H75.64V84.9591H66.41L48.96 56.9491H48.84V84.9591H40.2V43.1191H49.37Z" fill="white"/>
<path d="M79.9799 63.9798C80.0999 62.0298 80.5899 60.4098 81.4499 59.1198C82.3099 57.8298 83.4099 56.7998 84.7399 56.0098C86.0699 55.2298 87.5699 54.6698 89.2399 54.3398C90.8999 54.0098 92.5799 53.8398 94.2599 53.8398C95.7899 53.8398 97.3399 53.9498 98.8999 54.1598C100.47 54.3798 101.9 54.7998 103.19 55.4198C104.48 56.0498 105.54 56.9098 106.36 58.0298C107.18 59.1398 107.59 60.6198 107.59 62.4498V78.2098C107.59 79.5798 107.67 80.8898 107.82 82.1398C107.98 83.3898 108.25 84.3298 108.64 84.9498H100.18C100.02 84.4798 99.8999 83.9998 99.7999 83.5098C99.6999 83.0198 99.6299 82.5198 99.5899 82.0198C98.2599 83.3898 96.6899 84.3398 94.8899 84.8898C93.0899 85.4398 91.2499 85.7098 89.3699 85.7098C87.9199 85.7098 86.5699 85.5298 85.3199 85.1798C84.0699 84.8298 82.9699 84.2798 82.0299 83.5398C81.0899 82.7998 80.3599 81.8598 79.8299 80.7298C79.2999 79.5998 79.0399 78.2498 79.0399 76.6898C79.0399 74.9698 79.3399 73.5498 79.9499 72.4398C80.5599 71.3298 81.3399 70.4398 82.2999 69.7698C83.2599 69.1098 84.3599 68.6098 85.5899 68.2798C86.8199 67.9498 88.0699 67.6798 89.3199 67.4898C90.5699 67.2898 91.8099 67.1398 93.0199 67.0198C94.2299 66.8998 95.3099 66.7298 96.2499 66.4898C97.1899 66.2598 97.9299 65.9098 98.4799 65.4598C99.0299 65.0098 99.2799 64.3598 99.2399 63.4998C99.2399 62.5998 99.0899 61.8898 98.7999 61.3598C98.5099 60.8298 98.1099 60.4198 97.6199 60.1298C97.1299 59.8398 96.5599 59.6398 95.9199 59.5398C95.2699 59.4398 94.5799 59.3898 93.8299 59.3898C92.1799 59.3898 90.8899 59.7398 89.9499 60.4398C89.0099 61.1398 88.4599 62.3198 88.2999 63.9598H79.9599L79.9799 63.9798ZM99.2499 70.1298C98.8999 70.4398 98.4599 70.6898 97.9299 70.8598C97.3999 71.0398 96.8299 71.1798 96.2299 71.2998C95.6199 71.4198 94.9899 71.5198 94.3199 71.5898C93.6499 71.6698 92.9899 71.7698 92.3199 71.8798C91.6899 71.9998 91.0799 72.1498 90.4699 72.3498C89.8599 72.5498 89.3299 72.8098 88.8799 73.1398C88.4299 73.4698 88.0699 73.8898 87.7899 74.3998C87.5199 74.9098 87.3799 75.5498 87.3799 76.3298C87.3799 77.1098 87.5199 77.6998 87.7899 78.2098C88.0599 78.7198 88.4399 79.1198 88.9099 79.4098C89.3799 79.6998 89.9299 79.9098 90.5599 80.0298C91.1899 80.1498 91.8299 80.2098 92.4999 80.2098C94.1499 80.2098 95.4199 79.9398 96.3199 79.3898C97.2199 78.8398 97.8899 78.1898 98.3199 77.4298C98.7499 76.6698 99.0199 75.8998 99.1099 75.1198C99.2099 74.3398 99.2599 73.7098 99.2599 73.2398V70.1298H99.2499Z" fill="white"/>
<path d="M120.9 54.6696V60.2996H121.02C121.41 59.3596 121.94 58.4896 122.61 57.6896C123.28 56.8896 124.04 56.2096 124.9 55.6396C125.76 55.0696 126.68 54.6296 127.66 54.3196C128.64 54.0096 129.66 53.8496 130.72 53.8496C131.27 53.8496 131.88 53.9496 132.54 54.1396V61.8796C132.15 61.7996 131.68 61.7296 131.13 61.6696C130.58 61.6096 130.05 61.5796 129.54 61.5796C128.01 61.5796 126.72 61.8296 125.66 62.3396C124.6 62.8496 123.75 63.5396 123.1 64.4196C122.45 65.2996 121.99 66.3196 121.72 67.4996C121.45 68.6696 121.31 69.9396 121.31 71.3096V84.9596H112.97V54.6596H120.9V54.6696Z" fill="white"/>
<path d="M136.72 63.9798C136.84 62.0298 137.33 60.4098 138.19 59.1198C139.05 57.8298 140.15 56.7998 141.48 56.0098C142.81 55.2298 144.31 54.6698 145.98 54.3398C147.64 54.0098 149.32 53.8398 151 53.8398C152.53 53.8398 154.08 53.9498 155.64 54.1598C157.21 54.3798 158.64 54.7998 159.93 55.4198C161.22 56.0498 162.28 56.9098 163.1 58.0298C163.92 59.1398 164.33 60.6198 164.33 62.4498V78.2098C164.33 79.5798 164.41 80.8898 164.56 82.1398C164.72 83.3898 164.99 84.3298 165.38 84.9498H156.92C156.76 84.4798 156.64 83.9998 156.54 83.5098C156.44 83.0198 156.37 82.5198 156.33 82.0198C155 83.3898 153.43 84.3398 151.63 84.8898C149.83 85.4398 147.99 85.7098 146.11 85.7098C144.66 85.7098 143.31 85.5298 142.06 85.1798C140.81 84.8298 139.71 84.2798 138.77 83.5398C137.83 82.7998 137.1 81.8598 136.57 80.7298C136.04 79.5998 135.78 78.2498 135.78 76.6898C135.78 74.9698 136.08 73.5498 136.69 72.4398C137.3 71.3298 138.08 70.4398 139.04 69.7698C140 69.1098 141.1 68.6098 142.33 68.2798C143.56 67.9498 144.81 67.6798 146.06 67.4898C147.31 67.2898 148.55 67.1398 149.76 67.0198C150.97 66.8998 152.05 66.7298 152.99 66.4898C153.93 66.2598 154.67 65.9098 155.22 65.4598C155.77 65.0098 156.02 64.3598 155.98 63.4998C155.98 62.5998 155.83 61.8898 155.54 61.3598C155.25 60.8298 154.85 60.4198 154.36 60.1298C153.87 59.8398 153.3 59.6398 152.66 59.5398C152.01 59.4398 151.32 59.3898 150.57 59.3898C148.92 59.3898 147.63 59.7398 146.69 60.4398C145.75 61.1398 145.2 62.3198 145.04 63.9598H136.7L136.72 63.9798ZM155.99 70.1298C155.64 70.4398 155.2 70.6898 154.67 70.8598C154.14 71.0398 153.57 71.1798 152.97 71.2998C152.36 71.4198 151.73 71.5198 151.06 71.5898C150.39 71.6698 149.73 71.7698 149.06 71.8798C148.43 71.9998 147.82 72.1498 147.21 72.3498C146.6 72.5498 146.07 72.8098 145.62 73.1398C145.17 73.4698 144.81 73.8898 144.53 74.3998C144.26 74.9098 144.12 75.5498 144.12 76.3298C144.12 77.1098 144.26 77.6998 144.53 78.2098C144.8 78.7198 145.18 79.1198 145.65 79.4098C146.12 79.6998 146.67 79.9098 147.3 80.0298C147.93 80.1498 148.57 80.2098 149.24 80.2098C150.89 80.2098 152.16 79.9398 153.06 79.3898C153.96 78.8398 154.63 78.1898 155.06 77.4298C155.49 76.6698 155.76 75.8998 155.85 75.1198C155.95 74.3398 156 73.7098 156 73.2398V70.1298H155.99Z" fill="white"/>
<path d="M181.55 93.9884C179.94 95.0384 177.71 95.5684 174.85 95.5684C173.99 95.5684 173.14 95.5384 172.29 95.4784C171.45 95.4184 170.6 95.3484 169.73 95.2684V88.4084C170.51 88.4884 171.32 88.5684 172.14 88.6384C172.96 88.7184 173.79 88.7384 174.61 88.6984C175.71 88.5784 176.52 88.1484 177.05 87.4084C177.58 86.6684 177.84 85.8484 177.84 84.9484C177.84 84.2884 177.72 83.6584 177.49 83.0684L166.85 54.6484H175.72L182.6 75.3884H182.72L189.36 54.6484H198L185.31 88.6984C184.41 91.1584 183.16 92.9184 181.55 93.9684V93.9884Z" fill="white"/>
<path d="M200.17 63.9798C200.29 62.0298 200.78 60.4098 201.64 59.1198C202.5 57.8298 203.6 56.7998 204.93 56.0098C206.26 55.2298 207.76 54.6698 209.43 54.3398C211.09 54.0098 212.77 53.8398 214.45 53.8398C215.98 53.8398 217.53 53.9498 219.09 54.1598C220.66 54.3798 222.09 54.7998 223.38 55.4198C224.67 56.0498 225.73 56.9098 226.55 58.0298C227.37 59.1398 227.78 60.6198 227.78 62.4498V78.2098C227.78 79.5798 227.86 80.8898 228.02 82.1398C228.18 83.3898 228.45 84.3298 228.84 84.9498H220.38C220.22 84.4798 220.1 83.9998 220 83.5098C219.9 83.0198 219.83 82.5198 219.79 82.0198C218.46 83.3898 216.89 84.3398 215.09 84.8898C213.29 85.4398 211.45 85.7098 209.57 85.7098C208.12 85.7098 206.77 85.5298 205.52 85.1798C204.27 84.8298 203.17 84.2798 202.23 83.5398C201.29 82.7998 200.56 81.8598 200.03 80.7298C199.5 79.5998 199.24 78.2498 199.24 76.6898C199.24 74.9698 199.54 73.5498 200.15 72.4398C200.76 71.3298 201.54 70.4398 202.5 69.7698C203.46 69.1098 204.56 68.6098 205.79 68.2798C207.02 67.9498 208.27 67.6798 209.52 67.4898C210.77 67.2898 212.01 67.1398 213.22 67.0198C214.43 66.8998 215.51 66.7298 216.45 66.4898C217.39 66.2598 218.13 65.9098 218.68 65.4598C219.23 65.0098 219.48 64.3598 219.44 63.4998C219.44 62.5998 219.29 61.8898 219 61.3598C218.71 60.8298 218.31 60.4198 217.82 60.1298C217.33 59.8398 216.76 59.6398 216.12 59.5398C215.47 59.4398 214.78 59.3898 214.03 59.3898C212.38 59.3898 211.09 59.7398 210.15 60.4398C209.21 61.1398 208.66 62.3198 208.5 63.9598H200.16L200.17 63.9798ZM219.44 70.1298C219.09 70.4398 218.65 70.6898 218.12 70.8598C217.59 71.0398 217.02 71.1798 216.42 71.2998C215.81 71.4198 215.18 71.5198 214.51 71.5898C213.84 71.6698 213.18 71.7698 212.51 71.8798C211.88 71.9998 211.27 72.1498 210.66 72.3498C210.05 72.5498 209.52 72.8098 209.07 73.1398C208.62 73.4698 208.26 73.8898 207.98 74.3998C207.71 74.9098 207.57 75.5498 207.57 76.3298C207.57 77.1098 207.71 77.6998 207.98 78.2098C208.25 78.7198 208.63 79.1198 209.1 79.4098C209.57 79.6998 210.12 79.9098 210.75 80.0298C211.38 80.1498 212.02 80.2098 212.69 80.2098C214.34 80.2098 215.61 79.9398 216.51 79.3898C217.41 78.8398 218.08 78.1898 218.51 77.4298C218.94 76.6698 219.21 75.8998 219.3 75.1198C219.4 74.3398 219.45 73.7098 219.45 73.2398V70.1298H219.44Z" fill="white"/>
<path d="M241.1 54.6696V58.8896H241.28C242.34 57.1296 243.71 55.8496 245.39 55.0496C247.07 54.2496 248.8 53.8496 250.56 53.8496C252.79 53.8496 254.62 54.1496 256.05 54.7596C257.48 55.3696 258.61 56.2096 259.43 57.2796C260.25 58.3496 260.83 59.6596 261.16 61.2096C261.49 62.7496 261.66 64.4596 261.66 66.3396V84.9696H253.32V67.8596C253.32 65.3596 252.93 63.4896 252.14 62.2596C251.36 61.0296 249.97 60.4096 247.97 60.4096C245.7 60.4096 244.05 61.0796 243.03 62.4296C242.01 63.7796 241.5 65.9996 241.5 69.0796V84.9596H233.16V54.6596H241.09L241.1 54.6696Z" fill="white"/>
<path d="M265.99 63.9798C266.11 62.0298 266.6 60.4098 267.46 59.1198C268.32 57.8298 269.42 56.7998 270.75 56.0098C272.08 55.2298 273.58 54.6698 275.25 54.3398C276.91 54.0098 278.59 53.8398 280.27 53.8398C281.8 53.8398 283.35 53.9498 284.91 54.1598C286.48 54.3798 287.91 54.7998 289.2 55.4198C290.49 56.0498 291.55 56.9098 292.37 58.0298C293.19 59.1398 293.6 60.6198 293.6 62.4498V78.2098C293.6 79.5798 293.68 80.8898 293.84 82.1398C294 83.3898 294.27 84.3298 294.66 84.9498H286.2C286.04 84.4798 285.92 83.9998 285.82 83.5098C285.72 83.0198 285.65 82.5198 285.61 82.0198C284.28 83.3898 282.71 84.3398 280.91 84.8898C279.11 85.4398 277.27 85.7098 275.39 85.7098C273.94 85.7098 272.59 85.5298 271.34 85.1798C270.09 84.8298 268.99 84.2798 268.05 83.5398C267.11 82.7998 266.38 81.8598 265.85 80.7298C265.32 79.5998 265.06 78.2498 265.06 76.6898C265.06 74.9698 265.36 73.5498 265.97 72.4398C266.58 71.3298 267.36 70.4398 268.32 69.7698C269.28 69.1098 270.38 68.6098 271.61 68.2798C272.84 67.9498 274.09 67.6798 275.34 67.4898C276.59 67.2898 277.83 67.1398 279.04 67.0198C280.25 66.8998 281.33 66.7298 282.27 66.4898C283.21 66.2598 283.95 65.9098 284.5 65.4598C285.05 65.0098 285.3 64.3598 285.26 63.4998C285.26 62.5998 285.11 61.8898 284.82 61.3598C284.53 60.8298 284.13 60.4198 283.64 60.1298C283.15 59.8398 282.58 59.6398 281.94 59.5398C281.29 59.4398 280.6 59.3898 279.85 59.3898C278.2 59.3898 276.91 59.7398 275.97 60.4398C275.03 61.1398 274.48 62.3198 274.32 63.9598H265.98L265.99 63.9798ZM285.27 70.1298C284.92 70.4398 284.48 70.6898 283.95 70.8598C283.42 71.0398 282.85 71.1798 282.25 71.2998C281.64 71.4198 281.01 71.5198 280.34 71.5898C279.67 71.6698 279.01 71.7698 278.34 71.8798C277.71 71.9998 277.1 72.1498 276.49 72.3498C275.88 72.5498 275.35 72.8098 274.9 73.1398C274.45 73.4698 274.09 73.8898 273.81 74.3998C273.54 74.9098 273.4 75.5498 273.4 76.3298C273.4 77.1098 273.54 77.6998 273.81 78.2098C274.08 78.7198 274.46 79.1198 274.93 79.4098C275.4 79.6998 275.95 79.9098 276.58 80.0298C277.21 80.1498 277.85 80.2098 278.52 80.2098C280.17 80.2098 281.44 79.9398 282.34 79.3898C283.24 78.8398 283.91 78.1898 284.34 77.4298C284.77 76.6698 285.04 75.8998 285.13 75.1198C285.23 74.3398 285.28 73.7098 285.28 73.2398V70.1298H285.27Z" fill="white"/>
<path d="M40.1999 15.28V34.73H59.6999C63.1799 34.73 65.9999 31.92 65.9999 28.45C65.9999 24.98 63.1799 22.17 59.6999 22.17H52.7899V15.28C52.7899 11.81 49.9699 9 46.4899 9C43.0099 9 40.1899 11.81 40.1899 15.28H40.1999Z" fill="white"/>
<path d="M31.81 62.5398V43.0898H12.31C8.83001 43.0898 6.01001 45.8998 6.01001 49.3698C6.01001 52.8398 8.83001 55.6498 12.31 55.6498H19.22V62.5398C19.22 66.0098 22.04 68.8198 25.52 68.8198C29 68.8198 31.82 66.0098 31.82 62.5398H31.81Z" fill="white"/>
<path d="M45.74 97.5391V107.169H55.93V97.5391H61.47V122.649H55.93V111.819H45.74V122.649H40.2V97.5391H45.74Z" fill="white"/>
<path d="M70.46 118.289C71.21 119.019 72.29 119.379 73.7 119.379C74.71 119.379 75.58 119.129 76.31 118.619C77.04 118.119 77.49 117.579 77.65 117.019H82.06C81.35 119.199 80.27 120.759 78.82 121.699C77.36 122.639 75.6 123.109 73.53 123.109C72.1 123.109 70.8 122.879 69.65 122.419C68.5 121.959 67.52 121.309 66.72 120.469C65.92 119.629 65.3 118.619 64.87 117.449C64.43 116.279 64.22 114.989 64.22 113.579C64.22 112.169 64.44 110.949 64.89 109.779C65.34 108.609 65.97 107.589 66.79 106.739C67.61 105.879 68.59 105.209 69.73 104.719C70.87 104.229 72.13 103.979 73.52 103.979C75.07 103.979 76.42 104.279 77.57 104.879C78.72 105.479 79.67 106.279 80.41 107.289C81.15 108.299 81.68 109.449 82.01 110.739C82.34 112.029 82.46 113.379 82.36 114.779H69.21C69.28 116.399 69.69 117.569 70.44 118.299L70.46 118.289ZM76.12 108.729C75.52 108.069 74.61 107.749 73.39 107.749C72.59 107.749 71.93 107.889 71.4 108.149C70.87 108.419 70.45 108.749 70.13 109.149C69.81 109.549 69.59 109.969 69.46 110.419C69.33 110.869 69.25 111.259 69.23 111.619H77.38C77.14 110.349 76.73 109.389 76.13 108.739L76.12 108.729Z" fill="white"/>
<path d="M85.14 110.059C85.21 108.889 85.4999 107.919 86.0199 107.139C86.5399 106.369 87.1999 105.749 87.9899 105.279C88.7899 104.809 89.6899 104.479 90.6899 104.279C91.6899 104.079 92.69 103.979 93.7 103.979C94.62 103.979 95.5499 104.049 96.4899 104.169C97.4299 104.299 98.29 104.549 99.06 104.929C99.84 105.309 100.47 105.829 100.96 106.489C101.45 107.159 101.7 108.039 101.7 109.139V118.599C101.7 119.419 101.75 120.209 101.84 120.959C101.93 121.709 102.1 122.269 102.33 122.649H97.2499C97.1599 122.369 97.0799 122.079 97.0199 121.789C96.9599 121.499 96.9199 121.199 96.8999 120.889C96.0999 121.709 95.1599 122.279 94.0799 122.609C92.9999 122.939 91.8899 123.099 90.7699 123.099C89.8999 123.099 89.09 122.989 88.34 122.779C87.59 122.569 86.9299 122.239 86.3699 121.799C85.8099 121.349 85.3699 120.789 85.0499 120.109C84.7299 119.429 84.5699 118.619 84.5699 117.679C84.5699 116.649 84.7499 115.799 85.1199 115.129C85.4799 114.459 85.95 113.929 86.53 113.529C87.11 113.129 87.7599 112.829 88.4999 112.629C89.2399 112.429 89.9899 112.269 90.7399 112.159C91.4899 112.039 92.2299 111.949 92.9599 111.879C93.6899 111.809 94.3399 111.699 94.8999 111.559C95.4599 111.419 95.9099 111.209 96.2399 110.939C96.5699 110.669 96.72 110.279 96.7 109.759C96.7 109.219 96.6099 108.789 96.4399 108.479C96.2599 108.159 96.0299 107.919 95.7299 107.739C95.4399 107.559 95.0999 107.449 94.7099 107.389C94.3199 107.329 93.8999 107.299 93.4599 107.299C92.4699 107.299 91.6999 107.509 91.1299 107.929C90.5699 108.349 90.24 109.059 90.14 110.039H85.1299L85.14 110.059ZM96.7099 113.749C96.4999 113.939 96.23 114.079 95.92 114.189C95.6 114.299 95.2599 114.379 94.8999 114.449C94.5399 114.519 94.1499 114.579 93.7499 114.629C93.3499 114.679 92.9499 114.739 92.5499 114.809C92.1699 114.879 91.7999 114.969 91.4399 115.089C91.0799 115.209 90.7599 115.369 90.4899 115.559C90.2199 115.759 90 116.009 89.84 116.319C89.68 116.619 89.59 117.009 89.59 117.479C89.59 117.949 89.67 118.299 89.84 118.609C90 118.919 90.2299 119.159 90.5099 119.329C90.7899 119.509 91.1199 119.629 91.4999 119.699C91.8799 119.769 92.2599 119.809 92.6599 119.809C93.6499 119.809 94.41 119.649 94.95 119.319C95.49 118.989 95.8899 118.599 96.1499 118.139C96.4099 117.679 96.5699 117.219 96.6299 116.749C96.6899 116.279 96.7199 115.909 96.7199 115.619V113.759L96.7099 113.749Z" fill="white"/>
<path d="M110.04 97.5391V122.649H105.03V97.5391H110.04Z" fill="white"/>
<path d="M124.42 104.469V107.809H120.75V116.809C120.75 117.649 120.89 118.219 121.17 118.499C121.45 118.779 122.02 118.919 122.86 118.919C123.14 118.919 123.41 118.909 123.67 118.889C123.93 118.869 124.18 118.829 124.41 118.779V122.649C123.99 122.719 123.52 122.769 123 122.789C122.48 122.809 121.98 122.829 121.48 122.829C120.7 122.829 119.97 122.779 119.28 122.669C118.59 122.559 117.98 122.359 117.45 122.049C116.92 121.749 116.5 121.309 116.2 120.749C115.89 120.189 115.74 119.449 115.74 118.539V107.819H112.71V104.479H115.74V99.0293H120.75V104.479H124.42V104.469Z" fill="white"/>
<path d="M132.11 97.5391V106.999H132.22C132.85 105.949 133.67 105.179 134.65 104.699C135.64 104.219 136.6 103.979 137.54 103.979C138.88 103.979 139.98 104.159 140.84 104.529C141.7 104.889 142.37 105.399 142.87 106.039C143.36 106.679 143.71 107.469 143.91 108.399C144.11 109.329 144.21 110.349 144.21 111.479V122.659H139.2V112.389C139.2 110.889 138.96 109.769 138.49 109.029C138.02 108.289 137.19 107.919 135.99 107.919C134.63 107.919 133.64 108.319 133.03 109.129C132.42 109.939 132.11 111.269 132.11 113.119V122.649H127.1V97.5391H132.11Z" fill="white"/>
</svg>
