<svg width="84" height="40" viewBox="0 0 84 40" fill="none" xmlns="http://www.w3.org/2000/svg">
<path d="M4.9841 10.6697L10.578 10.594L10.5021 4.98563C10.4885 3.98475 9.66936 3.18464 8.67137 3.19815C7.67338 3.21167 6.87619 4.03367 6.88975 5.03455L6.91666 7.02192L4.93506 7.04876C3.93707 7.06227 3.13988 7.88427 3.15344 8.88515C3.16699 9.88603 3.98615 10.6861 4.98414 10.6726L4.9841 10.6697Z" fill="#034EA2"/>
<path d="M11.8605 5.03333L11.8605 10.6278L17.4694 10.6278C18.4703 10.6278 19.2814 9.81958 19.2814 8.82148C19.2814 7.82339 18.4703 7.01514 17.4694 7.01514L15.4818 7.01514L15.4818 5.03334C15.4818 4.03524 14.6707 3.22699 13.6697 3.22699C12.6688 3.22699 11.8577 4.03524 11.8577 5.03333L11.8605 5.03333Z" fill="#ED1C24"/>
<path d="M10.6751 17.4935L10.6751 11.899L5.06629 11.899C4.06533 11.899 3.25421 12.7073 3.25421 13.7054C3.25421 14.7035 4.06533 15.5117 5.06629 15.5117L7.05382 15.5117L7.05382 17.4935C7.05382 18.4916 7.86494 19.2999 8.8659 19.2999C9.86686 19.2999 10.678 18.4916 10.678 17.4935L10.6751 17.4935Z" fill="#ED1C24"/>
<path d="M14.9301 12.6306L19.5742 20.0755H19.606V12.6306H21.8976V23.7277H19.4496L14.8214 16.2987H14.7896V23.7277H12.498V12.6306H14.9301Z" fill="#034EA2"/>
<path d="M23.0481 18.1625C23.08 17.6453 23.2099 17.2157 23.438 16.8735C23.6661 16.5314 23.9579 16.2582 24.3106 16.0487C24.6633 15.8418 25.0612 15.6933 25.5041 15.6058C25.9444 15.5182 26.39 15.4731 26.8355 15.4731C27.2413 15.4731 27.6524 15.5023 28.0662 15.558C28.4826 15.6164 28.8618 15.7278 29.204 15.8922C29.5461 16.0593 29.8272 16.2874 30.0447 16.5844C30.2622 16.8788 30.371 17.2714 30.371 17.7567V21.9367C30.371 22.3001 30.3922 22.6475 30.432 22.979C30.4744 23.3106 30.546 23.5599 30.6494 23.7243H28.4057C28.3632 23.5997 28.3314 23.4724 28.3049 23.3424C28.2783 23.2124 28.2598 23.0798 28.2492 22.9472C27.8964 23.3106 27.48 23.5625 27.0026 23.7084C26.5252 23.8543 26.0372 23.9259 25.5386 23.9259C25.154 23.9259 24.796 23.8782 24.4644 23.7853C24.1329 23.6925 23.8412 23.5466 23.5918 23.3504C23.3425 23.1541 23.1489 22.9048 23.0084 22.6051C22.8678 22.3054 22.7988 21.9473 22.7988 21.5336C22.7988 21.0774 22.8784 20.7008 23.0402 20.4064C23.202 20.112 23.4088 19.8759 23.6635 19.6982C23.9181 19.5232 24.2098 19.3905 24.536 19.303C24.8623 19.2155 25.1938 19.1439 25.5253 19.0935C25.8569 19.0404 26.1857 19.0007 26.5067 18.9688C26.8276 18.937 27.114 18.8919 27.3633 18.8283C27.6126 18.7673 27.8089 18.6744 27.9548 18.5551C28.1006 18.4357 28.167 18.2633 28.1563 18.0352C28.1563 17.7965 28.1166 17.6082 28.0396 17.4676C27.9627 17.3271 27.8566 17.2183 27.7267 17.1414C27.5967 17.0645 27.4455 17.0115 27.2758 16.9849C27.1034 16.9584 26.9204 16.9452 26.7215 16.9452C26.2839 16.9452 25.9417 17.038 25.6924 17.2236C25.4431 17.4093 25.2972 17.7223 25.2548 18.1572H23.0428L23.0481 18.1625ZM28.159 19.7937C28.0662 19.8759 27.9495 19.9422 27.8089 19.9873C27.6683 20.035 27.5172 20.0722 27.358 20.104C27.1962 20.1358 27.0291 20.1623 26.8514 20.1809C26.6737 20.2021 26.4987 20.2287 26.321 20.2578C26.1539 20.2897 25.9921 20.3294 25.8303 20.3825C25.6685 20.4355 25.528 20.5045 25.4086 20.592C25.2893 20.6795 25.1938 20.7909 25.1195 20.9262C25.0479 21.0615 25.0108 21.2312 25.0108 21.4381C25.0108 21.645 25.0479 21.8014 25.1195 21.9367C25.1911 22.072 25.2919 22.1781 25.4166 22.255C25.5412 22.3319 25.6871 22.3876 25.8542 22.4194C26.0213 22.4512 26.191 22.4672 26.3687 22.4672C26.8064 22.4672 27.1432 22.3956 27.3819 22.2497C27.6206 22.1038 27.7983 21.9314 27.9123 21.7298C28.0264 21.5283 28.098 21.324 28.1219 21.1172C28.1484 20.9103 28.1616 20.7432 28.1616 20.6185V19.7937H28.159Z" fill="#034EA2"/>
<path d="M38.097 18.1625C38.1288 17.6453 38.2587 17.2157 38.4868 16.8735C38.7149 16.5314 39.0067 16.2582 39.3594 16.0487C39.7122 15.8418 40.11 15.6933 40.5529 15.6058C40.9932 15.5182 41.4388 15.4731 41.8844 15.4731C42.2901 15.4731 42.7012 15.5023 43.115 15.558C43.5314 15.6164 43.9107 15.7278 44.2528 15.8922C44.5949 16.0593 44.8761 16.2874 45.0936 16.5844C45.311 16.8788 45.4198 17.2714 45.4198 17.7567V21.9367C45.4198 22.3001 45.441 22.6475 45.4808 22.979C45.5232 23.3106 45.5948 23.5599 45.6983 23.7243H43.4545C43.412 23.5997 43.3802 23.4724 43.3537 23.3424C43.3272 23.2124 43.3086 23.0798 43.298 22.9472C42.9452 23.3106 42.5288 23.5625 42.0514 23.7084C41.574 23.8543 41.086 23.9259 40.5874 23.9259C40.2028 23.9259 39.8448 23.8782 39.5133 23.7853C39.1817 23.6925 38.89 23.5466 38.6407 23.3504C38.3914 23.1541 38.1977 22.9048 38.0572 22.6051C37.9166 22.3054 37.8477 21.9473 37.8477 21.5336C37.8477 21.0774 37.9272 20.7008 38.089 20.4064C38.2508 20.112 38.4577 19.8759 38.7123 19.6982C38.9669 19.5232 39.2586 19.3905 39.5849 19.303C39.9111 19.2155 40.2426 19.1439 40.5742 19.0935C40.9057 19.0404 41.2346 19.0007 41.5555 18.9688C41.8764 18.937 42.1628 18.8919 42.4122 18.8283C42.6615 18.7673 42.8577 18.6744 43.0036 18.5551C43.1495 18.4357 43.2158 18.2633 43.2052 18.0352C43.2052 17.7965 43.1654 17.6082 43.0885 17.4676C43.0116 17.3271 42.9055 17.2183 42.7755 17.1414C42.6455 17.0645 42.4944 17.0115 42.3246 16.9849C42.1522 16.9584 41.9692 16.9452 41.7703 16.9452C41.3327 16.9452 40.9906 17.038 40.7412 17.2236C40.4919 17.4093 40.3461 17.7223 40.3036 18.1572H38.0917L38.097 18.1625ZM43.2078 19.7937C43.115 19.8759 42.9983 19.9422 42.8577 19.9873C42.7172 20.035 42.566 20.0722 42.4068 20.104C42.2451 20.1358 42.078 20.1623 41.9003 20.1809C41.7226 20.2021 41.5475 20.2287 41.3698 20.2578C41.2027 20.2897 41.0409 20.3294 40.8792 20.3825C40.7174 20.4355 40.5768 20.5045 40.4575 20.592C40.3381 20.6795 40.2426 20.7909 40.1684 20.9262C40.0968 21.0615 40.0596 21.2312 40.0596 21.4381C40.0596 21.645 40.0968 21.8014 40.1684 21.9367C40.24 22.072 40.3408 22.1781 40.4654 22.255C40.5901 22.3319 40.7359 22.3876 40.903 22.4194C41.0701 22.4512 41.2399 22.4672 41.4176 22.4672C41.8552 22.4672 42.192 22.3956 42.4307 22.2497C42.6694 22.1038 42.8471 21.9314 42.9612 21.7298C43.0752 21.5283 43.1468 21.324 43.1707 21.1172C43.1972 20.9103 43.2105 20.7432 43.2105 20.6185V19.7937H43.2078Z" fill="#034EA2"/>
<path d="M54.9254 18.1625C54.9572 17.6453 55.0872 17.2157 55.3152 16.8735C55.5433 16.5314 55.8351 16.2582 56.1878 16.0487C56.5406 15.8418 56.9384 15.6933 57.3813 15.6058C57.8216 15.5182 58.2672 15.4731 58.7128 15.4731C59.1186 15.4731 59.5296 15.5023 59.9434 15.558C60.3598 15.6164 60.7391 15.7278 61.0812 15.8922C61.4233 16.0593 61.7045 16.2874 61.922 16.5844C62.1395 16.8788 62.2482 17.2714 62.2482 17.7567V21.9367C62.2482 22.3001 62.2694 22.6475 62.3118 22.979C62.3543 23.3106 62.4259 23.5599 62.5293 23.7243H60.2855C60.2431 23.5997 60.2113 23.4724 60.1848 23.3424C60.1582 23.2124 60.1397 23.0798 60.1291 22.9472C59.7763 23.3106 59.3599 23.5625 58.8825 23.7084C58.4051 23.8543 57.9171 23.9259 57.4185 23.9259C57.0339 23.9259 56.6758 23.8782 56.3443 23.7853C56.0128 23.6925 55.721 23.5466 55.4717 23.3504C55.2224 23.1541 55.0288 22.9048 54.8882 22.6051C54.7477 22.3054 54.6787 21.9473 54.6787 21.5336C54.6787 21.0774 54.7583 20.7008 54.9201 20.4064C55.0819 20.112 55.2887 19.8759 55.5433 19.6982C55.798 19.5232 56.0897 19.3905 56.4159 19.303C56.7422 19.2155 57.0737 19.1439 57.4052 19.0935C57.7367 19.0404 58.0656 19.0007 58.3865 18.9688C58.7075 18.937 58.9939 18.8919 59.2432 18.8283C59.4925 18.7673 59.6888 18.6744 59.8347 18.5551C59.9805 18.4357 60.0468 18.2633 60.0362 18.0352C60.0362 17.7965 59.9964 17.6082 59.9195 17.4676C59.8426 17.3271 59.7365 17.2183 59.6066 17.1414C59.4766 17.0645 59.3254 17.0115 59.1557 16.9849C58.9833 16.9584 58.8003 16.9452 58.6014 16.9452C58.1637 16.9452 57.8216 17.038 57.5723 17.2236C57.323 17.4093 57.1771 17.7223 57.1347 18.1572H54.9227L54.9254 18.1625ZM60.0362 19.7937C59.9434 19.8759 59.8267 19.9422 59.6861 19.9873C59.5456 20.035 59.3944 20.0722 59.2353 20.104C59.0735 20.1358 58.9064 20.1623 58.7287 20.1809C58.551 20.2021 58.3759 20.2287 58.1982 20.2578C58.0311 20.2897 57.8693 20.3294 57.7076 20.3825C57.5458 20.4355 57.4052 20.5045 57.2859 20.592C57.1665 20.6795 57.071 20.7909 56.9968 20.9262C56.9252 21.0615 56.888 21.2312 56.888 21.4381C56.888 21.645 56.9252 21.8014 56.9968 21.9367C57.0684 22.072 57.1692 22.1781 57.2938 22.255C57.4185 22.3319 57.5643 22.3876 57.7314 22.4194C57.8985 22.4512 58.0683 22.4672 58.246 22.4672C58.6836 22.4672 59.0204 22.3956 59.2591 22.2497C59.4978 22.1038 59.6755 21.9314 59.7896 21.7298C59.9036 21.5283 59.9752 21.324 59.9991 21.1172C60.0256 20.9103 60.0389 20.7432 60.0389 20.6185V19.7937H60.0362Z" fill="#034EA2"/>
<path d="M72.3839 18.1625C72.4157 17.6453 72.5457 17.2157 72.7737 16.8735C73.0018 16.5314 73.2936 16.2582 73.6463 16.0487C73.9991 15.8418 74.3969 15.6933 74.8398 15.6058C75.2801 15.5182 75.7257 15.4731 76.1713 15.4731C76.5771 15.4731 76.9881 15.5023 77.4019 15.558C77.8183 15.6164 78.1976 15.7278 78.5397 15.8922C78.8818 16.0593 79.163 16.2874 79.3805 16.5844C79.5979 16.8788 79.7067 17.2714 79.7067 17.7567V21.9367C79.7067 22.3001 79.7279 22.6475 79.7703 22.979C79.8128 23.3106 79.8844 23.5599 79.9878 23.7243H77.744C77.7016 23.5997 77.6698 23.4724 77.6432 23.3424C77.6167 23.2124 77.5982 23.0798 77.5876 22.9472C77.2348 23.3106 76.8184 23.5625 76.341 23.7084C75.8636 23.8543 75.3756 23.9259 74.877 23.9259C74.4924 23.9259 74.1343 23.8782 73.8028 23.7853C73.4713 23.6925 73.1795 23.5466 72.9302 23.3504C72.6809 23.1541 72.4873 22.9048 72.3467 22.6051C72.2062 22.3054 72.1372 21.9473 72.1372 21.5336C72.1372 21.0774 72.2168 20.7008 72.3786 20.4064C72.5403 20.112 72.7472 19.8759 73.0018 19.6982C73.2565 19.5232 73.5482 19.3905 73.8744 19.303C74.2007 19.2155 74.5322 19.1439 74.8637 19.0935C75.1952 19.0404 75.5241 19.0007 75.845 18.9688C76.166 18.937 76.4524 18.8919 76.7017 18.8283C76.951 18.7673 77.1473 18.6744 77.2932 18.5551C77.439 18.4357 77.5053 18.2633 77.4947 18.0352C77.4947 17.7965 77.4549 17.6082 77.378 17.4676C77.3011 17.3271 77.195 17.2183 77.0651 17.1414C76.9351 17.0645 76.7839 17.0115 76.6142 16.9849C76.4418 16.9584 76.2588 16.9452 76.0599 16.9452C75.6222 16.9452 75.2801 17.038 75.0308 17.2236C74.7815 17.4093 74.6356 17.7223 74.5932 18.1572H72.3812L72.3839 18.1625ZM77.4974 19.7937C77.4046 19.8759 77.2879 19.9422 77.1473 19.9873C77.0067 20.035 76.8555 20.0722 76.6964 20.104C76.5346 20.1358 76.3675 20.1623 76.1898 20.1809C76.0121 20.2021 75.8371 20.2287 75.6594 20.2578C75.4923 20.2897 75.3305 20.3294 75.1687 20.3825C75.0069 20.4355 74.8664 20.5045 74.747 20.592C74.6277 20.6795 74.5322 20.7909 74.4579 20.9262C74.3863 21.0615 74.3492 21.2312 74.3492 21.4381C74.3492 21.645 74.3863 21.8014 74.4579 21.9367C74.5295 22.072 74.6303 22.1781 74.755 22.255C74.8796 22.3319 75.0255 22.3876 75.1926 22.4194C75.3597 22.4512 75.5294 22.4672 75.7071 22.4672C76.1447 22.4672 76.4816 22.3956 76.7203 22.2497C76.959 22.1038 77.1367 21.9314 77.2507 21.7298C77.3648 21.5283 77.4364 21.324 77.4602 21.1172C77.4868 20.9103 77.5 20.7432 77.5 20.6185V19.7937H77.4974Z" fill="#034EA2"/>
<path d="M33.9008 15.6947V17.1879H33.9327C34.0361 16.9386 34.1767 16.7078 34.3544 16.4956C34.5321 16.2835 34.7336 16.1031 34.9617 15.9519C35.1898 15.8007 35.4338 15.684 35.6937 15.6018C35.9537 15.5196 36.2242 15.4772 36.5053 15.4772C36.6512 15.4772 36.813 15.5037 36.988 15.5541V17.6069C36.8846 17.5857 36.7599 17.5672 36.6141 17.5512C36.4682 17.5353 36.3276 17.5274 36.1924 17.5274C35.7866 17.5274 35.4444 17.5937 35.1633 17.7289C34.8822 17.8642 34.6567 18.0472 34.4843 18.2806C34.3119 18.514 34.1899 18.7845 34.1183 19.0975C34.0467 19.4078 34.0096 19.7447 34.0096 20.108V23.7284H31.7976V15.692H33.9008V15.6947Z" fill="#034EA2"/>
<path d="M65.7819 15.6947V16.8139H65.8296C66.1108 16.3471 66.4741 16.0076 66.9197 15.7954C67.3653 15.5833 67.8241 15.4772 68.2909 15.4772C68.8824 15.4772 69.3677 15.5567 69.747 15.7185C70.1263 15.8803 70.426 16.1031 70.6434 16.3869C70.8609 16.6707 71.0148 17.0181 71.1023 17.4292C71.1898 17.8377 71.2349 18.2912 71.2349 18.7898V23.731H69.0229V19.193C69.0229 18.5299 68.9195 18.034 68.71 17.7077C68.5031 17.3815 68.1344 17.2171 67.604 17.2171C67.0019 17.2171 66.5643 17.3948 66.2938 17.7528C66.0233 18.1109 65.888 18.6997 65.888 19.5166V23.7284H63.676V15.692H65.7792L65.7819 15.6947Z" fill="#034EA2"/>
<path d="M49.9894 26.12C49.5624 26.3985 48.9709 26.539 48.2124 26.539C47.9843 26.539 47.7588 26.5311 47.5334 26.5152C47.3106 26.4992 47.0852 26.4807 46.8544 26.4595V24.64C47.0613 24.6612 47.2761 24.6824 47.4936 24.701C47.7111 24.7222 47.9312 24.7275 48.1487 24.7169C48.4405 24.6851 48.6553 24.5711 48.7959 24.3748C48.9364 24.1785 49.0054 23.961 49.0054 23.7223C49.0054 23.5473 48.9736 23.3802 48.9126 23.2237L46.0906 15.686H48.4431L50.2678 21.1868H50.2997L52.0608 15.686H54.3523L50.9866 24.7169C50.7479 25.3694 50.4164 25.8362 49.9894 26.1147V26.12Z" fill="#034EA2"/>
<path d="M13.9674 27.0601V29.6142H16.67V27.0601H18.1394V33.72H16.67V30.8476H13.9674V33.72H12.498V27.0601H13.9674Z" fill="#ED1C24"/>
<path d="M31.0226 27.0602V33.72H29.6938V27.0602H31.0226Z" fill="#ED1C24"/>
<path d="M36.8764 27.0602V29.5692H36.9056C37.0726 29.2907 37.2901 29.0865 37.55 28.9592C37.8126 28.8319 38.0672 28.7682 38.3165 28.7682C38.6719 28.7682 38.9637 28.816 39.1918 28.9141C39.4199 29.0096 39.5976 29.1449 39.7302 29.3146C39.8601 29.4843 39.953 29.6939 40.006 29.9405C40.0591 30.1872 40.0856 30.4577 40.0856 30.7574V33.7227H38.7568V30.9988C38.7568 30.601 38.6932 30.3039 38.5685 30.1076C38.4438 29.9114 38.2237 29.8132 37.9054 29.8132C37.5447 29.8132 37.2822 29.9193 37.1204 30.1342C36.9586 30.349 36.8764 30.7017 36.8764 31.1924V33.72H35.5476V27.0602H36.8764Z" fill="#ED1C24"/>
<path d="M34.8367 28.9021V29.788H33.8634V32.175C33.8634 32.3978 33.9005 32.549 33.9748 32.6232C34.049 32.6975 34.2002 32.7346 34.423 32.7346C34.4972 32.7346 34.5689 32.732 34.6378 32.7267C34.7068 32.7214 34.7731 32.7108 34.8341 32.6975V33.7239C34.7227 33.7425 34.598 33.7558 34.4601 33.7611C34.3222 33.7664 34.1896 33.7717 34.057 33.7717C33.8501 33.7717 33.6565 33.7584 33.4735 33.7292C33.2905 33.7001 33.1287 33.647 32.9881 33.5648C32.8475 33.4852 32.7362 33.3685 32.6566 33.22C32.5744 33.0715 32.5346 32.8752 32.5346 32.6339V29.7906H31.731V28.9048H32.5346V27.4593H33.8634V28.9048H34.8367V28.9021Z" fill="#ED1C24"/>
<path d="M20.5234 32.5678C20.7223 32.7614 21.0088 32.8569 21.3827 32.8569C21.6506 32.8569 21.8813 32.7906 22.075 32.6553C22.2686 32.5227 22.3879 32.3795 22.4304 32.231H23.6C23.4117 32.8091 23.1252 33.2229 22.7407 33.4722C22.3534 33.7215 21.8867 33.8462 21.3376 33.8462C20.9584 33.8462 20.6136 33.7852 20.3086 33.6632C20.0036 33.5412 19.7436 33.3688 19.5315 33.146C19.3193 32.9232 19.1548 32.6553 19.0408 32.345C18.9241 32.0347 18.8684 31.6925 18.8684 31.3186C18.8684 30.9446 18.9268 30.621 19.0461 30.3107C19.1655 30.0004 19.3325 29.7299 19.55 29.5044C19.7675 29.2763 20.0274 29.0986 20.3298 28.9687C20.6321 28.8387 20.9663 28.7724 21.335 28.7724C21.7461 28.7724 22.1041 28.852 22.4091 29.0111C22.7141 29.1702 22.9661 29.3824 23.1624 29.6503C23.3586 29.9182 23.4992 30.2232 23.5867 30.5653C23.6743 30.9075 23.7061 31.2655 23.6796 31.6368H20.1919C20.2104 32.0665 20.3192 32.3768 20.5181 32.5704L20.5234 32.5678ZM22.0246 30.0322C21.8654 29.8572 21.6241 29.7723 21.3005 29.7723C21.0883 29.7723 20.9133 29.8094 20.7727 29.8784C20.6321 29.95 20.5207 30.0375 20.4359 30.1436C20.351 30.2497 20.2927 30.3611 20.2582 30.4805C20.2237 30.5998 20.2025 30.7032 20.1972 30.7987H22.3587C22.2951 30.4619 22.1864 30.2073 22.0272 30.0349L22.0246 30.0322Z" fill="#ED1C24"/>
<path d="M24.4173 30.385C24.4359 30.0747 24.5128 29.8174 24.6507 29.6105C24.7886 29.4063 24.9637 29.2419 25.1732 29.1172C25.3854 28.9925 25.6241 28.905 25.8893 28.852C26.1545 28.7989 26.4197 28.7724 26.6876 28.7724C26.9316 28.7724 27.1783 28.791 27.4276 28.8228C27.6769 28.8573 27.905 28.9236 28.1092 29.0244C28.3161 29.1252 28.4832 29.2631 28.6131 29.4381C28.7431 29.6158 28.8094 29.8492 28.8094 30.141V32.65C28.8094 32.8675 28.8227 33.077 28.8465 33.2759C28.8704 33.4749 28.9155 33.6234 28.9765 33.7242H27.6291C27.6053 33.6499 27.5841 33.573 27.5681 33.4961C27.5522 33.4192 27.5416 33.3396 27.5363 33.2574C27.3241 33.4749 27.0748 33.626 26.7884 33.7136C26.5019 33.8011 26.2075 33.8435 25.9105 33.8435C25.6798 33.8435 25.4649 33.8144 25.266 33.7587C25.0671 33.703 24.892 33.6154 24.7435 33.4987C24.595 33.3794 24.4783 33.2309 24.3934 33.0505C24.3085 32.8701 24.2661 32.6553 24.2661 32.406C24.2661 32.1328 24.3139 31.9074 24.412 31.7297C24.5075 31.552 24.6321 31.4114 24.786 31.3053C24.9398 31.1992 25.1122 31.1197 25.3084 31.0666C25.5047 31.0136 25.7036 30.9711 25.9025 30.942C26.1015 30.9101 26.2977 30.8863 26.4913 30.8677C26.685 30.8491 26.8573 30.8199 27.0059 30.7828C27.1544 30.7457 27.2737 30.69 27.3613 30.6184C27.4488 30.5468 27.4886 30.4433 27.4833 30.3054C27.4833 30.1622 27.4594 30.0481 27.4143 29.9659C27.3666 29.881 27.3056 29.8174 27.226 29.7697C27.1491 29.7219 27.0589 29.6927 26.9555 29.6768C26.852 29.6609 26.7406 29.653 26.624 29.653C26.3614 29.653 26.1572 29.7086 26.006 29.82C25.8575 29.9314 25.7699 30.1197 25.7434 30.3797H24.4146L24.4173 30.385ZM27.4859 31.3637C27.4302 31.4141 27.3586 31.4512 27.2764 31.4804C27.1915 31.5095 27.1014 31.5308 27.0059 31.5493C26.9104 31.5679 26.807 31.5838 26.7009 31.5971C26.5948 31.6103 26.4887 31.6262 26.3826 31.6448C26.2818 31.6634 26.1837 31.6872 26.0882 31.7191C25.9927 31.7509 25.9078 31.7933 25.8362 31.8437C25.7646 31.8968 25.7063 31.9631 25.6638 32.0453C25.6214 32.1249 25.5975 32.2283 25.5975 32.353C25.5975 32.4776 25.6188 32.5704 25.6638 32.6527C25.7063 32.7349 25.7673 32.7985 25.8415 32.8436C25.9158 32.8914 26.0033 32.9232 26.1041 32.9418C26.2049 32.9603 26.3057 32.9709 26.4118 32.9709C26.6743 32.9709 26.8759 32.9285 27.0191 32.841C27.1624 32.7534 27.2684 32.65 27.3374 32.528C27.4064 32.406 27.4488 32.284 27.4647 32.1593C27.4806 32.0347 27.4886 31.9365 27.4886 31.8596V31.3663L27.4859 31.3637Z" fill="#ED1C24"/>
</svg>
