<svg xmlns="http://www.w3.org/2000/svg" version="1.1" xmlns:xlink="http://www.w3.org/1999/xlink" width="512" height="512" x="0" y="0" viewBox="0 0 65 65" style="enable-background:new 0 0 512 512" xml:space="preserve" class=""><g><path d="M24.816 0h12.408v3.102H31.02v3.102h-3.102V3.102h-3.102zM0 0v21.714h21.714V0zm18.612 18.612H3.102V3.102h15.51zM43.429 0v21.714h21.714V0zm18.61 18.612h-15.51V3.102h15.51z" fill="#ffffff" opacity="1" data-original="#000000" class=""></path><path d="M6.204 6.204h9.306v9.306H6.204zM24.816 6.204h3.102v3.102h-3.102zM31.02 6.204h6.204v6.204h-3.103V9.306H31.02zM49.633 6.204h9.306v9.306h-9.306zM24.816 12.408h9.305v3.102H31.02v3.102h-3.102V15.51h-3.102zM37.224 15.51h3.102v6.204h-3.102zM24.816 18.612h3.102v6.205h-3.102zM31.02 18.612h3.102v3.103H31.02z" fill="#ffffff" opacity="1" data-original="#000000" class=""></path><path d="M34.121 21.714h3.103v3.102h3.101v6.204h3.104v6.204h3.1V31.02h-3.1v-6.204h3.1v3.102h3.104v-3.102h3.101v6.204h-3.101v6.204h3.101V31.02h3.101v3.102h3.103V31.02h-3.103v-6.204h3.103v3.102h3.101v-3.102h3.104v6.204h-3.104v6.204h-3.101v3.102h3.101v9.307h-3.101v3.101h-3.103V46.53h-6.202v-3.101h6.202v-3.103h-15.51v3.103h-6.204v-6.205h3.103v-3.102h-3.103V31.02h3.103v-3.102h-3.103zM15.51 24.816h6.204v3.102H15.51zM27.918 24.816h3.102v3.102h3.101v3.102h-6.203zM15.51 31.02h9.306v3.103H15.51zM6.204 27.918v3.102H3.102v-3.102H0v12.408h12.408v-3.103H9.306v-3.102h3.102V31.02h3.102v-3.102zm0 9.306H3.102v-3.102h3.102z" fill="#ffffff" opacity="1" data-original="#000000" class=""></path><path d="M31.02 34.122h3.102v3.102H31.02zM15.51 37.224h6.204v3.103H15.51zM24.816 37.224h6.204v3.102h-3.102v3.103h-3.102zM62.039 37.224h3.104v3.103h-3.104zM27.918 43.429h3.102v9.305h-3.102v-3.101h-3.102V46.53h3.102zM40.325 43.429h6.204v3.101h-3.1v3.103h-3.104v3.101h3.104v-3.101h3.1v3.101h3.104v3.102h3.101v-3.102h3.101v9.306h-3.101v-3.102h-3.101v6.205h-3.104V62.04h-3.1v-3.102h3.1v-3.102h-9.305v-3.102h-3.103v-3.101h3.103V46.53h3.101zM0 43.429v21.714h21.714V43.429zM18.612 62.04H3.102V46.53h15.51z" fill="#ffffff" opacity="1" data-original="#000000" class=""></path><path d="M6.204 49.633h9.306v9.306H6.204zM49.633 49.633h3.102v3.102h-3.102zM31.02 52.734h3.101v6.204H31.02v3.102h3.101v3.103h-6.203v-9.307h3.102zM58.938 55.836h6.204v3.103h-6.204zM34.121 58.938h6.204v6.205h-3.101V62.04h-3.103zM55.835 62.04h6.204v3.103h-6.204z" fill="#ffffff" opacity="1" data-original="#000000" class=""></path></g></svg>